<svg width="24" height="24" viewBox="0 0 24 24" fill="none" xmlns="http://www.w3.org/2000/svg">
<path fill-rule="evenodd" clip-rule="evenodd" d="M8.13602 1.60248C8.35556 1.95373 8.24877 2.41645 7.89752 2.63598L3.8975 5.13598C3.54624 5.35551 3.08353 5.24873 2.864 4.89748C2.64447 4.54622 2.75125 4.08351 3.1025 3.86398L7.10253 1.36398C7.45378 1.14445 7.91649 1.25123 8.13602 1.60248ZM15.864 1.60248C16.0835 1.25123 16.5462 1.14445 16.8975 1.36398L20.8975 3.86398C21.2488 4.08351 21.3555 4.54623 21.136 4.89748C20.9165 5.24873 20.4538 5.35551 20.1025 5.13598L16.1025 2.63598C15.7512 2.41644 15.6445 1.95373 15.864 1.60248ZM12 4.74998C7.44365 4.74998 3.75 8.44363 3.75 13C3.75 17.5563 7.44365 21.25 12 21.25C16.5563 21.25 20.25 17.5563 20.25 13C20.25 8.44363 16.5563 4.74998 12 4.74998ZM2.25 13C2.25 7.6152 6.61522 3.24998 12 3.24998C17.3848 3.24998 21.75 7.6152 21.75 13C21.75 18.3848 17.3848 22.75 12 22.75C6.61522 22.75 2.25 18.3848 2.25 13ZM12 8.24998C12.4142 8.24998 12.75 8.58577 12.75 8.99998V12.6893L15.0303 14.9697C15.3232 15.2625 15.3232 15.7374 15.0303 16.0303C14.7374 16.3232 14.2626 16.3232 13.9697 16.0303L11.4697 13.5303C11.329 13.3897 11.25 13.1989 11.25 13V8.99998C11.25 8.58577 11.5858 8.24998 12 8.24998Z" fill="#357CEA"/>
</svg>
