<svg width="34" height="28" viewBox="0 0 34 28" fill="none" xmlns="http://www.w3.org/2000/svg">
<g filter="url(#filter0_ddd_2007_1040)">
<rect x="8" y="2" width="24" height="24" rx="12" fill="#0060FF" shape-rendering="crispEdges"/>
<g clip-path="url(#clip0_2007_1040)">
<path fill-rule="evenodd" clip-rule="evenodd" d="M16.5168 9.49998H23.483C24.0272 9.49997 24.4661 9.49997 24.8215 9.52913C25.1875 9.55916 25.5089 9.62259 25.806 9.77474C26.2729 10.0138 26.6527 10.3937 26.8918 10.8605C27.044 11.1577 27.1074 11.4791 27.1374 11.845C27.1666 12.2004 27.1666 12.6394 27.1666 13.1836V13.2051C27.1666 13.2242 27.1666 13.2434 27.1667 13.2627C27.1673 13.488 27.168 13.728 27.081 13.9426C27.0062 14.1268 26.8856 14.2889 26.7307 14.4134C26.66 14.4702 26.5817 14.5152 26.4996 14.5529C26.4976 15.6277 26.4839 16.7138 26.3874 17.6443C26.3308 18.1904 26.2439 18.7032 26.1061 19.1403C25.9705 19.5704 25.7703 19.9776 25.4534 20.2593C24.9044 20.7473 24.2135 20.9624 23.351 21.0655C22.5044 21.1667 21.4193 21.1667 20.034 21.1666H19.9658C18.5805 21.1667 17.4954 21.1667 16.6488 21.0655C15.7863 20.9624 15.0954 20.7473 14.5464 20.2593C14.2295 19.9776 14.0293 19.5704 13.8937 19.1403C13.7559 18.7032 13.669 18.1904 13.6124 17.6443C13.5159 16.7138 13.5022 15.6277 13.5002 14.5529C13.4181 14.5152 13.3398 14.4702 13.2691 14.4134C13.1142 14.2889 12.9936 14.1268 12.9188 13.9426C12.8318 13.728 12.8325 13.488 12.8331 13.2627C12.8332 13.2434 12.8332 13.2242 12.8332 13.2051L12.8332 13.1836C12.8332 12.6394 12.8332 12.2004 12.8624 11.845C12.8924 11.4791 12.9558 11.1577 13.108 10.8605C13.3471 10.3937 13.7269 10.0138 14.1938 9.77474C14.4909 9.62259 14.8123 9.55916 15.1783 9.52913C15.5337 9.49997 15.9726 9.49997 16.5168 9.49998ZM14.5013 14.8724C14.5058 15.8303 14.5251 16.7506 14.6071 17.5411C14.6603 18.0545 14.7382 18.4929 14.8475 18.8397C14.959 19.1936 15.0883 19.4031 15.2108 19.5119C15.5405 19.805 15.996 19.9804 16.7674 20.0725C17.5477 20.1658 18.5731 20.1666 19.9999 20.1666C21.4267 20.1666 22.452 20.1658 23.2324 20.0725C24.0038 19.9804 24.4593 19.805 24.789 19.5119C24.9115 19.4031 25.0408 19.1936 25.1523 18.8397C25.2616 18.4929 25.3395 18.0545 25.3927 17.5411C25.4747 16.7506 25.494 15.8303 25.4985 14.8724L22.1666 15.872V16.1076C22.1666 16.4484 21.9591 16.7548 21.6427 16.8814L21.176 17.0681C20.421 17.3701 19.5788 17.3701 18.8238 17.0681L18.3571 16.8814C18.0407 16.7548 17.8332 16.4484 17.8332 16.1076V15.872L14.5013 14.8724ZM17.8332 14.828L14.2383 13.7495C14.0947 13.7064 14.0117 13.6812 13.9508 13.6582C13.9135 13.644 13.8987 13.6357 13.8948 13.6333C13.8732 13.6158 13.8564 13.5931 13.8458 13.5674C13.8446 13.563 13.8409 13.5464 13.8381 13.5067C13.8335 13.4418 13.8332 13.355 13.8332 13.2051C13.8332 12.6343 13.8336 12.2365 13.859 11.9268C13.884 11.6229 13.9304 11.4485 13.9981 11.3163C14.1415 11.0362 14.3694 10.8083 14.6496 10.6648C14.7817 10.5972 14.9562 10.5507 15.26 10.5258C15.5697 10.5004 15.9676 10.5 16.5383 10.5H23.4615C24.0322 10.5 24.4301 10.5004 24.7398 10.5258C25.0436 10.5507 25.2181 10.5972 25.3502 10.6648C25.6304 10.8083 25.8583 11.0362 26.0017 11.3163C26.0694 11.4485 26.1158 11.6229 26.1408 11.9268C26.1662 12.2365 26.1666 12.6343 26.1666 13.2051C26.1666 13.355 26.1663 13.4418 26.1617 13.5067C26.1589 13.5464 26.1552 13.563 26.154 13.5674C26.1434 13.5931 26.1266 13.6158 26.105 13.6333C26.1011 13.6357 26.0863 13.644 26.049 13.6582C25.9881 13.6812 25.9051 13.7064 25.7615 13.7495L22.1666 14.828V14.6666C22.1666 14.2064 21.7935 13.8333 21.3332 13.8333H18.6666C18.2063 13.8333 17.8332 14.2064 17.8332 14.6666V14.828ZM26.1061 13.6326L26.105 13.6333L26.1061 13.6326ZM26.1536 13.5687L26.154 13.5674L26.1536 13.5687ZM13.8462 13.5687L13.8458 13.5674L13.8462 13.5687ZM13.8937 13.6326L13.8948 13.6333L13.8937 13.6326ZM18.8332 14.8333V15.9948L19.1952 16.1396C19.7118 16.3462 20.288 16.3462 20.8046 16.1396L21.1666 15.9948V14.8333H18.8332Z" fill="white"/>
<path fill-rule="evenodd" clip-rule="evenodd" d="M20 7.83331C19.3477 7.83331 18.7914 8.25 18.5853 8.83327C18.4932 9.09363 18.2076 9.23009 17.9472 9.13807C17.6869 9.04604 17.5504 8.76038 17.6424 8.50002C17.9854 7.5297 18.9107 6.83331 20 6.83331C21.0893 6.83331 22.0147 7.5297 22.3576 8.50002C22.4497 8.76038 22.3132 9.04604 22.0528 9.13807C21.7925 9.23009 21.5068 9.09363 21.4148 8.83327C21.2086 8.25 20.6524 7.83331 20 7.83331Z" fill="white"/>
</g>
</g>
<defs>
<filter id="filter0_ddd_2007_1040" x="0" y="-3" width="40" height="40" filterUnits="userSpaceOnUse" color-interpolation-filters="sRGB">
<feFlood flood-opacity="0" result="BackgroundImageFix"/>
<feColorMatrix in="SourceAlpha" type="matrix" values="0 0 0 0 0 0 0 0 0 0 0 0 0 0 0 0 0 0 127 0" result="hardAlpha"/>
<feOffset dy="3"/>
<feGaussianBlur stdDeviation="0.5"/>
<feComposite in2="hardAlpha" operator="out"/>
<feColorMatrix type="matrix" values="0 0 0 0 0 0 0 0 0 0 0 0 0 0 0 0 0 0 0.06 0"/>
<feBlend mode="normal" in2="BackgroundImageFix" result="effect1_dropShadow_2007_1040"/>
<feColorMatrix in="SourceAlpha" type="matrix" values="0 0 0 0 0 0 0 0 0 0 0 0 0 0 0 0 0 0 127 0" result="hardAlpha"/>
<feOffset dy="3"/>
<feGaussianBlur stdDeviation="4"/>
<feComposite in2="hardAlpha" operator="out"/>
<feColorMatrix type="matrix" values="0 0 0 0 0 0 0 0 0 0 0 0 0 0 0 0 0 0 0.15 0"/>
<feBlend mode="normal" in2="effect1_dropShadow_2007_1040" result="effect2_dropShadow_2007_1040"/>
<feColorMatrix in="SourceAlpha" type="matrix" values="0 0 0 0 0 0 0 0 0 0 0 0 0 0 0 0 0 0 127 0" result="hardAlpha"/>
<feMorphology radius="1" operator="dilate" in="SourceAlpha" result="effect3_dropShadow_2007_1040"/>
<feOffset/>
<feComposite in2="hardAlpha" operator="out"/>
<feColorMatrix type="matrix" values="0 0 0 0 0 0 0 0 0 0 0 0 0 0 0 0 0 0 0.04 0"/>
<feBlend mode="normal" in2="effect2_dropShadow_2007_1040" result="effect3_dropShadow_2007_1040"/>
<feBlend mode="normal" in="SourceGraphic" in2="effect3_dropShadow_2007_1040" result="shape"/>
</filter>
<clipPath id="clip0_2007_1040">
<rect width="16" height="16" fill="white" transform="translate(12 6)"/>
</clipPath>
</defs>
</svg>
