<svg width="68" height="48" viewBox="0 0 68 48" fill="none" xmlns="http://www.w3.org/2000/svg">
<g clip-path="url(#clip0_69_7154)">
<path d="M28.0077 39.8391L4.23145 25.5627L39.9924 4.09009L63.7688 18.3666L28.0077 39.8391Z" fill="#5D7280"/>
<path d="M59.9396 18.6977L53.034 22.8442L32.5371 10.537L39.4426 6.39038L59.9396 18.6977Z" fill="#D7DAFF"/>
<path d="M47.1654 15.6397L46.6681 15.9384L46.3023 15.7189L45.6063 16.1367L44.9838 15.763L45.6798 15.3451L44.3994 14.5763L44.9547 14.2429L48.1065 13.7781L48.8203 14.2067L46.7996 15.4203L47.1654 15.6397ZM45.3675 14.5602L46.1772 15.0463L47.5736 14.2079L45.3675 14.5602Z" fill="#5D7280"/>
<path d="M47.8524 17.4854L47.2012 17.0943L49.4317 15.7551L48.6711 15.2982L49.1038 15.0385C49.3135 15.1536 49.4675 15.2301 49.5655 15.2676C49.7216 15.3273 49.8824 15.3559 50.0474 15.3531C50.1604 15.3515 50.2793 15.33 50.4043 15.2889C50.4787 15.2638 50.5299 15.2429 50.5582 15.226L51.0869 15.5434L47.8524 17.4854Z" fill="#5D7280"/>
<path d="M52.8287 17.3796C52.8435 17.2797 52.7802 17.1873 52.6389 17.1024C52.4456 16.9862 52.2419 16.9506 52.0278 16.9953C51.9044 17.0212 51.7482 17.0864 51.5593 17.1908L50.9414 16.8199C51.2271 16.6609 51.4991 16.5573 51.7579 16.509C52.2502 16.4171 52.7126 16.5012 53.1454 16.7608C53.4874 16.9663 53.6647 17.1864 53.6774 17.4219C53.69 17.6572 53.5402 17.8687 53.2278 18.0561C52.9885 18.1999 52.7044 18.2848 52.3758 18.3106C52.1587 18.3285 51.8672 18.3185 51.5014 18.281L51.0665 18.237C50.7943 18.2092 50.6035 18.193 50.4941 18.188C50.3849 18.1832 50.2767 18.1887 50.1697 18.205L51.5817 19.0527L51.0217 19.3889L48.8066 18.0588C49.0445 17.923 49.3064 17.8257 49.5918 17.7667C49.8982 17.6917 50.3405 17.6833 50.9191 17.7414C51.4218 17.7913 51.7615 17.815 51.9385 17.8122C52.2121 17.8069 52.4329 17.7539 52.6011 17.6529C52.7379 17.5709 52.8136 17.4797 52.8287 17.3796Z" fill="#5D7280"/>
<path d="M54.0292 19.2656C53.9518 19.2191 53.8753 19.1848 53.7994 19.1625C53.664 19.1241 53.5227 19.1186 53.3756 19.1463L52.8311 18.7873L54.8455 17.8512L56.6278 18.9213L56.088 19.2455L54.7652 18.4511L53.9421 18.806C54.1042 18.8266 54.2231 18.8471 54.2991 18.8678C54.4254 18.9025 54.5548 18.9597 54.6871 19.0392C54.9549 19.2 55.0984 19.3941 55.1177 19.6218C55.1371 19.8497 54.9749 20.0666 54.6316 20.273C54.3326 20.4524 53.9696 20.5552 53.543 20.581C53.1161 20.6069 52.7117 20.505 52.3294 20.2756C52.0217 20.0908 51.8514 19.8895 51.8186 19.6715C51.7859 19.4537 51.9101 19.247 52.1912 19.0513L52.8248 19.4318C52.7118 19.5301 52.6533 19.6231 52.6496 19.711C52.6459 19.7989 52.7125 19.8841 52.8494 19.9661C53.007 20.0608 53.1824 20.0997 53.3757 20.0825C53.569 20.0656 53.7496 20.0067 53.9178 19.9058C54.0828 19.8068 54.1834 19.6999 54.22 19.5851C54.2564 19.4702 54.1927 19.3638 54.0292 19.2656Z" fill="#5D7280"/>
<path opacity="0.3" d="M55.6456 16.1193L41.8377 16.1213L34.4902 11.7096L48.3055 11.7119L55.6456 16.1193Z" fill="white"/>
<g filter="url(#filter0_d_69_7154)">
<path d="M28.0067 43.9098L4.23047 29.6333V25.5569L28.0067 39.8332V43.9098Z" fill="#3B4951"/>
</g>
<g filter="url(#filter1_d_69_7154)">
<path d="M63.7691 22.4368L28.0068 43.9099V39.8333L63.7691 18.3602V22.4368Z" fill="#2C353B"/>
</g>
<path d="M35.478 14.8527L31.7309 17.1175L26.6416 14.0615L30.3887 11.7968L35.478 14.8527Z" fill="#5D7280"/>
<path d="M35.4779 14.8527L35.4746 16.0791L31.7275 18.3438L31.7308 17.1174L35.4779 14.8527Z" fill="#2C353B"/>
<path d="M31.7313 17.1175L31.728 18.3439L26.6387 15.288L26.642 14.0615L31.7313 17.1175Z" fill="#3B4951"/>
<path d="M42.144 18.8551L38.3971 21.1196L33.3047 18.0621L37.0518 15.7974L42.144 18.8551Z" fill="#5D7280"/>
<path d="M42.1449 18.8551L42.1416 20.0815L38.3945 22.3463L38.398 21.1196L42.1449 18.8551Z" fill="#2C353B"/>
<path d="M38.3976 21.1196L38.3942 22.3463L33.3018 19.2886L33.3052 18.0621L38.3976 21.1196Z" fill="#3B4951"/>
<path d="M48.8063 22.8556L45.0592 25.1202L39.9668 22.0626L43.7139 19.798L48.8063 22.8556Z" fill="#5D7280"/>
<path d="M48.8062 22.8556L48.8028 24.0819L45.0557 26.3466L45.0591 25.1202L48.8062 22.8556Z" fill="#2C353B"/>
<path d="M45.0596 25.1202L45.0561 26.3467L39.9639 23.2891L39.9672 22.0626L45.0596 25.1202Z" fill="#3B4951"/>
<path d="M30.2173 18.0325L26.4702 20.2971L21.3809 17.2412L25.1281 14.9766L30.2173 18.0325Z" fill="#5D7280"/>
<path d="M30.2172 18.0325L30.2139 19.2589L26.4668 21.5235L26.4701 20.2971L30.2172 18.0325Z" fill="#2C353B"/>
<path d="M26.4705 20.2972L26.4671 21.5236L21.3779 18.4676L21.3811 17.2412L26.4705 20.2972Z" fill="#3B4951"/>
<path d="M36.8823 22.0349L33.1352 24.2994L28.043 21.2418L31.7901 18.9772L36.8823 22.0349Z" fill="#5D7280"/>
<path d="M36.8832 22.0349L36.8799 23.2613L33.1328 25.5258L33.1361 24.2994L36.8832 22.0349Z" fill="#2C353B"/>
<path d="M33.1357 24.2994L33.1324 25.5259L28.04 22.4682L28.0435 21.2418L33.1357 24.2994Z" fill="#3B4951"/>
<path d="M43.5457 26.0351L39.7984 28.2999L34.7061 25.2423L38.4531 22.9775L43.5457 26.0351Z" fill="#5D7280"/>
<path d="M43.5463 26.0352L43.5429 27.2616L39.7959 29.5263L39.7991 28.2999L43.5463 26.0352Z" fill="#2C353B"/>
<path d="M39.7988 28.2999L39.7956 29.5263L34.7031 26.4687L34.7064 25.2423L39.7988 28.2999Z" fill="#3B4951"/>
<path d="M24.9553 21.2122L21.2085 23.4768L16.1191 20.421L19.8661 18.1565L24.9553 21.2122Z" fill="#5D7280"/>
<path d="M24.9553 21.2122L24.952 22.4386L21.2051 24.7033L21.2085 23.4768L24.9553 21.2122Z" fill="#2C353B"/>
<path d="M21.209 23.4768L21.2056 24.7034L16.1162 21.6474L16.1197 20.421L21.209 23.4768Z" fill="#3B4951"/>
<path d="M31.6216 25.2146L27.8745 27.4791L22.7822 24.4215L26.5293 22.1567L31.6216 25.2146Z" fill="#5D7280"/>
<path d="M31.6225 25.2146L31.6192 26.4409L27.8721 28.7055L27.8754 27.4791L31.6225 25.2146Z" fill="#2C353B"/>
<path d="M27.875 27.4791L27.8717 28.7055L22.7793 25.6479L22.7827 24.4215L27.875 27.4791Z" fill="#3B4951"/>
<path d="M38.2848 29.2151L34.5377 31.4797L29.4453 28.422L33.1923 26.1573L38.2848 29.2151Z" fill="#5D7280"/>
<path d="M38.2855 29.2151L38.2821 30.4415L34.5352 32.7061L34.5385 31.4797L38.2855 29.2151Z" fill="#2C353B"/>
<path d="M34.5381 31.4797L34.5348 32.7062L29.4424 29.6486L29.4457 28.422L34.5381 31.4797Z" fill="#3B4951"/>
<path d="M19.6947 24.392L15.9476 26.6565L10.8584 23.6008L14.6054 21.3361L19.6947 24.392Z" fill="#5D7280"/>
<path d="M19.6947 24.392L19.6914 25.6184L15.9443 27.8832L15.9476 26.6565L19.6947 24.392Z" fill="#2C353B"/>
<path d="M15.9481 26.6565L15.9448 27.8832L10.8555 24.8273L10.8589 23.6008L15.9481 26.6565Z" fill="#3B4951"/>
<path d="M26.361 28.3943L22.6139 30.6589L17.5215 27.6013L21.2683 25.3365L26.361 28.3943Z" fill="#5D7280"/>
<path d="M26.3609 28.3943L26.3574 29.6207L22.6104 31.8853L22.6138 30.6589L26.3609 28.3943Z" fill="#2C353B"/>
<path d="M22.6143 30.6589L22.6108 31.8854L17.5186 28.8277L17.5219 27.6013L22.6143 30.6589Z" fill="#3B4951"/>
<path d="M33.0231 32.3948L29.276 34.6594L24.1836 31.6016L27.9307 29.3372L33.0231 32.3948Z" fill="#F3AE00"/>
<path d="M33.023 32.3948L33.0195 33.6213L29.2725 35.8858L29.2759 34.6594L33.023 32.3948Z" fill="#F08700"/>
<path d="M29.2764 34.6594L29.2729 35.8859L24.1807 32.8284L24.184 31.6017L29.2764 34.6594Z" fill="#F3AE00"/>
</g>
<defs>
<filter id="filter0_d_69_7154" x="0.230469" y="25.5569" width="31.7764" height="26.3529" filterUnits="userSpaceOnUse" color-interpolation-filters="sRGB">
<feFlood flood-opacity="0" result="BackgroundImageFix"/>
<feColorMatrix in="SourceAlpha" type="matrix" values="0 0 0 0 0 0 0 0 0 0 0 0 0 0 0 0 0 0 127 0" result="hardAlpha"/>
<feOffset dy="4"/>
<feGaussianBlur stdDeviation="2"/>
<feComposite in2="hardAlpha" operator="out"/>
<feColorMatrix type="matrix" values="0 0 0 0 0 0 0 0 0 0 0 0 0 0 0 0 0 0 0.25 0"/>
<feBlend mode="normal" in2="BackgroundImageFix" result="effect1_dropShadow_69_7154"/>
<feBlend mode="normal" in="SourceGraphic" in2="effect1_dropShadow_69_7154" result="shape"/>
</filter>
<filter id="filter1_d_69_7154" x="24.0068" y="18.3602" width="43.7622" height="33.5497" filterUnits="userSpaceOnUse" color-interpolation-filters="sRGB">
<feFlood flood-opacity="0" result="BackgroundImageFix"/>
<feColorMatrix in="SourceAlpha" type="matrix" values="0 0 0 0 0 0 0 0 0 0 0 0 0 0 0 0 0 0 127 0" result="hardAlpha"/>
<feOffset dy="4"/>
<feGaussianBlur stdDeviation="2"/>
<feComposite in2="hardAlpha" operator="out"/>
<feColorMatrix type="matrix" values="0 0 0 0 0 0 0 0 0 0 0 0 0 0 0 0 0 0 0.25 0"/>
<feBlend mode="normal" in2="BackgroundImageFix" result="effect1_dropShadow_69_7154"/>
<feBlend mode="normal" in="SourceGraphic" in2="effect1_dropShadow_69_7154" result="shape"/>
</filter>
<clipPath id="clip0_69_7154">
<rect width="68" height="48" fill="white"/>
</clipPath>
</defs>
</svg>
