<svg width="20" height="20" viewBox="0 0 20 20" fill="none" xmlns="http://www.w3.org/2000/svg">
<circle cx="10" cy="10.833" r="2.5" stroke="#344054" stroke-width="1.25"/>
<path d="M8.33342 16.6666H11.6667C14.0075 16.6666 15.1779 16.6666 16.0187 16.1048C16.3826 15.8616 16.6951 15.5491 16.9383 15.1851C17.5001 14.3444 17.5001 13.174 17.5001 10.8332C17.5001 8.49247 17.5 7.32227 16.9382 6.48153C16.695 6.11756 16.3825 5.80506 16.0185 5.56186C15.1778 5.00009 14.0074 5.00009 11.6666 5.00009H8.33329C5.99252 5.00009 4.82214 5.00009 3.98139 5.56186C3.61742 5.80506 3.30492 6.11756 3.06173 6.48153C2.50008 7.32209 2.50008 8.49196 2.50008 10.8317L2.50008 10.8332C2.50008 13.174 2.50008 14.3444 3.06185 15.1851C3.30505 15.5491 3.61755 15.8616 3.98152 16.1048C4.82226 16.6666 5.99265 16.6666 8.33342 16.6666Z" stroke="#344054" stroke-width="1.25"/>
<path d="M15.0007 8.33301H14.584" stroke="#344054" stroke-width="1.5" stroke-linecap="round"/>
<path d="M12.5 2.5L7.5 2.5" stroke="#344054" stroke-width="1.5" stroke-linecap="round"/>
</svg>
