<svg width="20" height="20" viewBox="0 0 20 20" fill="none" xmlns="http://www.w3.org/2000/svg">
<path d="M15.8337 11.6667V16.6667M15.8337 16.6667L17.5003 15.0001M15.8337 16.6667L14.167 15.0001" stroke="#DF1C41" stroke-width="1.25" stroke-linecap="round" stroke-linejoin="round"/>
<path d="M18.3337 9.99992C18.3337 6.85722 18.3337 5.28587 17.3573 4.30956C16.381 3.33325 14.8097 3.33325 11.667 3.33325H8.33366C5.19096 3.33325 3.61961 3.33325 2.6433 4.30956C1.66699 5.28587 1.66699 6.85722 1.66699 9.99992C1.66699 13.1426 1.66699 14.714 2.6433 15.6903C3.61961 16.6666 5.19096 16.6666 8.33366 16.6666H11.667" stroke="#DF1C41" stroke-width="1.25" stroke-linecap="round"/>
<path d="M8.33333 13.3333H5" stroke="#DF1C41" stroke-width="1.25" stroke-linecap="round"/>
<path d="M1.66699 8.33325L18.3337 8.33325" stroke="#DF1C41" stroke-width="1.25" stroke-linecap="round"/>
</svg>
