<svg width="20" height="20" viewBox="0 0 20 20" fill="none" xmlns="http://www.w3.org/2000/svg">
<path fill-rule="evenodd" clip-rule="evenodd" d="M1.87484 10C1.87484 5.51269 5.51252 1.875 9.99984 1.875C14.4872 1.875 18.1248 5.51269 18.1248 10V12.3272C18.19 12.3042 18.2601 12.2917 18.3332 12.2917C18.6783 12.2917 18.9582 12.5715 18.9582 12.9167V14.5833C18.9582 14.9285 18.6783 15.2083 18.3332 15.2083C18.2576 15.2083 18.1852 15.1949 18.1182 15.1704C18.1136 15.3374 18.1059 15.4912 18.0928 15.6322C18.0592 15.995 17.9866 16.3295 17.8072 16.6427C17.6879 16.8511 17.5378 17.04 17.3616 17.2024C17.0946 17.4485 16.7851 17.5883 16.4425 17.6922C16.1186 17.7903 15.7165 17.8696 15.2402 17.9636L15.1783 17.9758C14.8531 18.0399 14.5577 18.0982 14.3119 18.1176C14.0474 18.1384 13.7493 18.1239 13.4636 17.9631C13.2945 17.8679 13.1466 17.74 13.0277 17.5877C12.8299 17.3348 12.7638 17.046 12.7351 16.7801C12.7081 16.5295 12.7081 16.2203 12.7082 15.8733V11.5097C12.7081 11.2148 12.7081 10.9499 12.7293 10.7323C12.7519 10.5002 12.8037 10.2493 12.9566 10.0169C13.0824 9.82538 13.2511 9.66479 13.4508 9.54974C13.6967 9.40802 13.953 9.37664 14.1845 9.37506C14.3983 9.37361 14.6551 9.39894 14.9351 9.42658L14.9935 9.43234C15.4815 9.48045 15.8921 9.52092 16.2249 9.58683C16.4529 9.632 16.6691 9.69331 16.8717 9.79046C16.7609 6.09044 13.7267 3.125 9.99984 3.125C6.27298 3.125 3.23873 6.09044 3.12797 9.79046C3.33061 9.69331 3.54676 9.632 3.7748 9.58683C4.10755 9.52092 4.51818 9.48045 5.00622 9.43234L5.06462 9.42658C5.3446 9.39894 5.60134 9.37361 5.81522 9.37506C6.04666 9.37664 6.30297 9.40802 6.5489 9.54974C6.74855 9.66479 6.91723 9.82538 7.04312 10.0169C7.19593 10.2493 7.24776 10.5002 7.27036 10.7323C7.29154 10.9499 7.29152 11.2148 7.29151 11.5097V15.8733C7.29153 16.2203 7.29155 16.5295 7.26455 16.7801C7.2359 17.046 7.16976 17.3348 6.97202 17.5877C6.85304 17.74 6.70521 17.8679 6.53606 17.9631C6.2504 18.1239 5.95226 18.1384 5.68773 18.1176C5.44196 18.0982 5.14661 18.0399 4.82137 17.9758L4.75948 17.9636C4.28315 17.8696 3.88104 17.7903 3.55721 17.6922C3.21458 17.5883 2.90512 17.4485 2.63809 17.2024C2.46191 17.04 2.31177 16.8511 2.19244 16.6427C2.01308 16.3295 1.9405 15.995 1.90688 15.6322C1.89381 15.4912 1.88607 15.3374 1.88149 15.1704C1.81445 15.1949 1.74204 15.2083 1.6665 15.2083C1.32133 15.2083 1.0415 14.9285 1.0415 14.5833V12.9167C1.0415 12.5715 1.32133 12.2917 1.6665 12.2917C1.73955 12.2917 1.80967 12.3042 1.87484 12.3272V10ZM3.12484 14.3277C3.12484 14.8707 3.12546 15.2354 3.15154 15.5169C3.17667 15.788 3.22158 15.9244 3.27719 16.0216C3.33377 16.1204 3.40412 16.2085 3.48518 16.2832C3.56179 16.3538 3.67495 16.4217 3.91982 16.4959C4.1768 16.5738 4.51711 16.6417 5.03099 16.743C5.399 16.8156 5.62171 16.8585 5.78596 16.8714C5.87451 16.8784 5.91487 16.8734 5.92835 16.8706C5.94913 16.8581 5.96894 16.841 5.98619 16.8192C5.99134 16.8091 6.00887 16.7656 6.02174 16.6462C6.04065 16.4707 6.0415 16.23 6.0415 15.842V11.5372C6.0415 11.2061 6.04081 11.003 6.02624 10.8534C6.01607 10.749 6.002 10.7112 5.99819 10.7029C5.97868 10.6734 5.95459 10.6509 5.92899 10.6353C5.91802 10.6323 5.88366 10.6256 5.80671 10.625C5.66682 10.6241 5.47681 10.642 5.15862 10.6734C4.63302 10.7252 4.28352 10.7604 4.01767 10.813C3.76291 10.8635 3.64477 10.9198 3.56536 10.9796C3.44883 11.0674 3.34928 11.1806 3.27423 11.3133C3.22051 11.4083 3.17596 11.5451 3.15111 11.8207C3.12543 12.1054 3.12484 12.4749 3.12484 13.023V14.3277ZM16.8748 13.023C16.8748 12.4749 16.8742 12.1054 16.8486 11.8207C16.8237 11.5451 16.7792 11.4083 16.7254 11.3133C16.6504 11.1806 16.5508 11.0674 16.4343 10.9796C16.3549 10.9198 16.2368 10.8635 15.982 10.813C15.7162 10.7604 15.3667 10.7252 14.8411 10.6734C14.5229 10.642 14.3329 10.6241 14.193 10.625C14.116 10.6256 14.0816 10.6323 14.0707 10.6353C14.0451 10.6509 14.021 10.6734 14.0015 10.7029C13.9977 10.7112 13.9836 10.749 13.9734 10.8534C13.9589 11.003 13.9582 11.2061 13.9582 11.5372V15.842C13.9582 16.23 13.959 16.4707 13.9779 16.6462C13.9908 16.7656 14.0083 16.8091 14.0135 16.8192C14.0307 16.841 14.0505 16.8581 14.0713 16.8706C14.0848 16.8734 14.1252 16.8784 14.2137 16.8714C14.378 16.8585 14.6007 16.8156 14.9687 16.743C15.4826 16.6417 15.8229 16.5738 16.0799 16.4959C16.3247 16.4217 16.4379 16.3538 16.5145 16.2832C16.5956 16.2085 16.6659 16.1204 16.7225 16.0216C16.7781 15.9244 16.823 15.788 16.8481 15.5169C16.8742 15.2354 16.8748 14.8707 16.8748 14.3277V13.023Z" fill="#357CEA"/>
</svg>
