<svg width="40" height="40" viewBox="0 0 40 40" fill="none" xmlns="http://www.w3.org/2000/svg">
<path d="M4.00098 4C4.00098 1.79086 5.79184 0 8.00098 0H24.001L36.001 12V36C36.001 38.2091 34.2101 40 32.001 40H8.00098C5.79184 40 4.00098 38.2091 4.00098 36V4Z" fill="#168448"/>
<path opacity="0.3" d="M24.001 0L36.001 12H28.001C25.7918 12 24.001 10.2091 24.001 8V0Z" fill="white"/>
<path d="M15.5281 29.3281H13.6617C13.6276 29.0866 13.558 28.8722 13.4529 28.6847C13.3477 28.4943 13.2128 28.3324 13.048 28.1989C12.8833 28.0653 12.6929 27.9631 12.477 27.892C12.2639 27.821 12.0324 27.7855 11.7824 27.7855C11.3307 27.7855 10.9372 27.8977 10.602 28.1222C10.2668 28.3437 10.0068 28.6676 9.82218 29.0938C9.63752 29.517 9.54519 30.0312 9.54519 30.6364C9.54519 31.2585 9.63752 31.7812 9.82218 32.2045C10.0097 32.6278 10.271 32.9474 10.6063 33.1634C10.9415 33.3793 11.3293 33.4872 11.7696 33.4872C12.0168 33.4872 12.2455 33.4545 12.4557 33.3892C12.6688 33.3239 12.8577 33.2287 13.0225 33.1037C13.1872 32.9759 13.3236 32.821 13.4316 32.6392C13.5423 32.4574 13.6191 32.25 13.6617 32.017L15.5281 32.0256C15.4798 32.4261 15.3591 32.8125 15.1659 33.1847C14.9756 33.554 14.7185 33.8849 14.3946 34.1776C14.0736 34.4673 13.6901 34.6974 13.2441 34.8679C12.8009 35.0355 12.2994 35.1193 11.7398 35.1193C10.9614 35.1193 10.2654 34.9432 9.65172 34.5909C9.04093 34.2386 8.55797 33.7287 8.20286 33.0611C7.85059 32.3935 7.67445 31.5852 7.67445 30.6364C7.67445 29.6847 7.85343 28.875 8.21138 28.2074C8.56934 27.5398 9.05513 27.0312 9.66877 26.6818C10.2824 26.3295 10.9727 26.1534 11.7398 26.1534C12.2455 26.1534 12.7142 26.2244 13.146 26.3665C13.5807 26.5085 13.9656 26.7159 14.3009 26.9886C14.6361 27.2585 14.9088 27.5895 15.1191 27.9815C15.3321 28.3736 15.4685 28.8224 15.5281 29.3281ZM21.5857 28.7827C21.5516 28.4389 21.4053 28.1719 21.1468 27.9815C20.8882 27.7912 20.5374 27.696 20.0942 27.696C19.7931 27.696 19.5388 27.7386 19.3314 27.8239C19.124 27.9062 18.9649 28.0213 18.8541 28.169C18.7462 28.3168 18.6922 28.4844 18.6922 28.6719C18.6865 28.8281 18.7192 28.9645 18.7902 29.081C18.8641 29.1974 18.9649 29.2983 19.0928 29.3835C19.2206 29.4659 19.3683 29.5384 19.536 29.6009C19.7036 29.6605 19.8825 29.7116 20.0729 29.7543L20.857 29.9418C21.2377 30.027 21.5871 30.1406 21.9053 30.2827C22.2235 30.4247 22.499 30.5994 22.732 30.8068C22.9649 31.0142 23.1453 31.2585 23.2732 31.5398C23.4039 31.821 23.4706 32.1435 23.4735 32.5071C23.4706 33.0412 23.3343 33.5043 23.0644 33.8963C22.7973 34.2855 22.411 34.5881 21.9053 34.804C21.4024 35.017 20.7959 35.1236 20.0857 35.1236C19.3811 35.1236 18.7675 35.0156 18.2448 34.7997C17.7249 34.5838 17.3186 34.2642 17.026 33.8409C16.7362 33.4148 16.5843 32.8878 16.57 32.2599H18.3556C18.3754 32.5526 18.4593 32.7969 18.607 32.9929C18.7575 33.1861 18.9578 33.3324 19.2078 33.4318C19.4607 33.5284 19.7462 33.5767 20.0644 33.5767C20.3769 33.5767 20.6482 33.5312 20.8783 33.4403C21.1112 33.3494 21.2916 33.223 21.4195 33.0611C21.5473 32.8991 21.6112 32.7131 21.6112 32.5028C21.6112 32.3068 21.553 32.142 21.4365 32.0085C21.3229 31.875 21.1553 31.7614 20.9337 31.6676C20.7149 31.5739 20.4465 31.4886 20.1283 31.4119L19.178 31.1733C18.4422 30.9943 17.8612 30.7145 17.4351 30.3338C17.009 29.9531 16.7973 29.4403 16.8002 28.7955C16.7973 28.267 16.9379 27.8054 17.222 27.4105C17.509 27.0156 17.9024 26.7074 18.4024 26.4858C18.9024 26.2642 19.4706 26.1534 20.107 26.1534C20.7547 26.1534 21.32 26.2642 21.803 26.4858C22.2888 26.7074 22.6666 27.0156 22.9365 27.4105C23.2064 27.8054 23.3456 28.2628 23.3541 28.7827H21.5857ZM26.2913 26.2727L28.4007 32.9034H28.4816L30.5953 26.2727H32.6407L29.6322 35H27.2544L24.2416 26.2727H26.2913Z" fill="white"/>
</svg>
