<svg width="24" height="24" viewBox="0 0 24 24" fill="none" xmlns="http://www.w3.org/2000/svg">
<path d="M20.9752 11.8144L20.2361 11.9422L20.9752 11.8144ZM20.2696 7.73468L19.5306 7.86249L20.2696 7.73468ZM6.93777 3.52256L6.19056 3.45795L6.93777 3.52256ZM6.12561 12.9152L6.87282 12.9798V12.9798L6.12561 12.9152ZM13.995 18.7782L14.7351 18.6569V18.6569L13.995 18.7782ZM13.3323 14.7337L14.0724 14.6124L13.3323 14.7337ZM6.69814 14.3221L6.20855 14.8903H6.20855L6.69814 14.3221ZM8.13688 15.5619L8.62647 14.9938L8.62647 14.9938L8.13688 15.5619ZM10.5181 19.2159L9.79208 19.4042V19.4042L10.5181 19.2159ZM10.9938 21.0497L11.7197 20.8614V20.8614L10.9938 21.0497ZM12.6676 21.9353L12.4382 21.2212L12.4382 21.2212L12.6676 21.9353ZM12.8126 21.8887L13.042 22.6028L13.042 22.6028L12.8126 21.8887ZM9.86195 17.537L10.5235 17.1836L9.86195 17.537ZM13.9047 20.7521L13.1787 20.5638V20.5638L13.9047 20.7521ZM11.6742 21.8672L11.3486 22.5429V22.5429L11.6742 21.8672ZM3.9716 2.52892L3.22439 2.46431L3.9716 2.52892ZM3 13.7654L3.74721 13.83C3.71261 14.2302 3.36893 14.5321 2.96767 14.5147C2.5664 14.4974 2.25 14.1671 2.25 13.7654H3ZM20.2361 11.9422L19.5306 7.86249L21.0087 7.60688L21.7142 11.6866L20.2361 11.9422ZM13.245 2.74964H8.59635V1.24964H13.245V2.74964ZM7.68498 3.58717L6.87282 12.9798L5.3784 12.8506L6.19056 3.45795L7.68498 3.58717ZM19.5306 7.86249C19.0238 4.9319 16.3813 2.74964 13.245 2.74964V1.24964C17.0712 1.24964 20.3708 3.91859 21.0087 7.60688L19.5306 7.86249ZM13.2548 18.8995L12.5921 14.8549L14.0724 14.6124L14.7351 18.6569L13.2548 18.8995ZM7.18773 13.754L8.62647 14.9938L7.64729 16.1301L6.20855 14.8903L7.18773 13.754ZM11.244 19.0276L11.7197 20.8614L10.2678 21.2381L9.79208 19.4042L11.244 19.0276ZM12.4382 21.2212L12.5832 21.1746L13.042 22.6028L12.897 22.6493L12.4382 21.2212ZM10.5235 17.1836C10.8354 17.7677 11.0777 18.3862 11.244 19.0276L9.79208 19.4042C9.65573 18.8786 9.45699 18.3707 9.20042 17.8904L10.5235 17.1836ZM12.5832 21.1747C12.8896 21.0762 13.1072 20.8395 13.1787 20.5638L14.6307 20.9404C14.4252 21.7324 13.819 22.3532 13.042 22.6028L12.5832 21.1747ZM11.7197 20.8614C11.7548 20.9964 11.8523 21.1205 11.9998 21.1916L11.3486 22.5429C10.8166 22.2865 10.417 21.8134 10.2678 21.2381L11.7197 20.8614ZM11.9998 21.1916C12.1345 21.2565 12.2931 21.2678 12.4382 21.2212L12.897 22.6493C12.3873 22.8131 11.8312 22.7754 11.3486 22.5429L11.9998 21.1916ZM14.1537 13.0154H19.3348V14.5154H14.1537V13.0154ZM4.71881 2.59352L3.74721 13.83L2.25279 13.7008L3.22439 2.46431L4.71881 2.59352ZM3.75 2.48689V13.7654H2.25V2.48689H3.75ZM3.22439 2.46431C3.2112 2.61685 3.33146 2.74964 3.48671 2.74964V1.24964C4.21268 1.24964 4.78122 1.87173 4.71881 2.59352L3.22439 2.46431ZM14.7351 18.6569C14.8596 19.4171 14.8241 20.1949 14.6307 20.9404L13.1787 20.5638C13.3197 20.0204 13.3456 19.4535 13.2548 18.8995L14.7351 18.6569ZM8.59635 2.74964C8.12244 2.74964 7.72601 3.11266 7.68498 3.58717L6.19056 3.45795C6.29852 2.20939 7.3427 1.24964 8.59635 1.24964V2.74964ZM8.62647 14.9938C9.30632 15.5796 10.0392 16.277 10.5235 17.1836L9.20042 17.8904C8.85404 17.242 8.3025 16.6947 7.64729 16.1301L8.62647 14.9938ZM21.7142 11.6866C21.9695 13.1631 20.8341 14.5154 19.3348 14.5154V13.0154C19.9014 13.0154 20.3332 12.5037 20.2361 11.9422L21.7142 11.6866ZM3.48671 2.74964C3.63292 2.74964 3.75 2.6312 3.75 2.48689H2.25C2.25 1.80438 2.80289 1.24964 3.48671 1.24964V2.74964ZM12.5921 14.8549C12.4344 13.8921 13.1766 13.0154 14.1537 13.0154V14.5154C14.1038 14.5154 14.0639 14.5606 14.0724 14.6124L12.5921 14.8549ZM6.87282 12.9798C6.8474 13.2738 6.96475 13.5618 7.18773 13.754L6.20855 14.8903C5.62022 14.3833 5.31149 13.6243 5.3784 12.8506L6.87282 12.9798Z" fill="#344054"/>
</svg>
