<svg width="20" height="20" viewBox="0 0 20 20" fill="none" xmlns="http://www.w3.org/2000/svg">
<path d="M4.16699 6.66663C4.16699 4.3096 4.16699 3.13109 4.89923 2.39886C5.63146 1.66663 6.80997 1.66663 9.16699 1.66663H10.8337C13.1907 1.66663 14.3692 1.66663 15.1014 2.39886C15.8337 3.13109 15.8337 4.3096 15.8337 6.66663V13.3333C15.8337 15.6903 15.8337 16.8688 15.1014 17.6011C14.3692 18.3333 13.1907 18.3333 10.8337 18.3333H9.16699C6.80997 18.3333 5.63146 18.3333 4.89923 17.6011C4.16699 16.8688 4.16699 15.6903 4.16699 13.3333V6.66663Z" stroke="#9747FF" stroke-width="1.25"/>
<path d="M4.16699 3.39685C3.35442 3.47678 2.80746 3.65741 2.39923 4.06565C1.66699 4.79788 1.66699 5.9764 1.66699 8.33342V11.6668C1.66699 14.0238 1.66699 15.2023 2.39923 15.9345C2.80746 16.3428 3.35442 16.5234 4.16699 16.6033" stroke="#9747FF" stroke-width="1.25"/>
<path d="M15.833 3.39685C16.6456 3.47678 17.1925 3.65741 17.6008 4.06565C18.333 4.79788 18.333 5.9764 18.333 8.33342V11.6668C18.333 14.0238 18.333 15.2023 17.6008 15.9345C17.1925 16.3428 16.6456 16.5234 15.833 16.6033" stroke="#9747FF" stroke-width="1.25"/>
<path d="M7.5 10.8334H12.5" stroke="#9747FF" stroke-width="1.25" stroke-linecap="round"/>
<path d="M7.5 7.5H12.5" stroke="#9747FF" stroke-width="1.25" stroke-linecap="round"/>
<path d="M7.5 14.1666H10" stroke="#9747FF" stroke-width="1.25" stroke-linecap="round"/>
</svg>
