<svg width="28" height="29" viewBox="0 0 28 29" fill="none" xmlns="http://www.w3.org/2000/svg">
<path d="M3.5 12.1668C3.5 7.76705 3.5 5.56717 4.86684 4.20033C6.23367 2.8335 8.43356 2.8335 12.8333 2.8335H15.1667C19.5664 2.8335 21.7663 2.8335 23.1332 4.20033C24.5 5.56717 24.5 7.76705 24.5 12.1668V16.8335C24.5 21.2333 24.5 23.4332 23.1332 24.8C21.7663 26.1668 19.5664 26.1668 15.1667 26.1668H12.8333C8.43356 26.1668 6.23367 26.1668 4.86684 24.8C3.5 23.4332 3.5 21.2333 3.5 16.8335V12.1668Z" stroke="#636363" stroke-width="1.5"/>
<path d="M9.3335 14.5H18.6668" stroke="#636363" stroke-width="1.5" stroke-linecap="round"/>
<path d="M9.3335 9.8335H18.6668" stroke="#636363" stroke-width="1.5" stroke-linecap="round"/>
<path d="M9.3335 19.1665H15.1668" stroke="#636363" stroke-width="1.5" stroke-linecap="round"/>
</svg>
