<svg width="24" height="24" viewBox="0 0 24 24" fill="none" xmlns="http://www.w3.org/2000/svg">
<path d="M4.00024 21.9996H20.0002" stroke="#344054" stroke-width="1.5" stroke-linecap="round"/>
<path d="M13.8883 3.66329L14.6298 2.92179C15.8584 1.69323 17.8503 1.69323 19.0788 2.92179C20.3074 4.15035 20.3074 6.14225 19.0788 7.37081L18.3373 8.11231M13.8883 3.66329C13.8883 3.66329 13.981 5.23899 15.3713 6.62931C16.7616 8.01963 18.3373 8.11231 18.3373 8.11231M13.8883 3.66329L7.0713 10.4803C6.60957 10.942 6.37871 11.1729 6.18016 11.4274C5.94595 11.7277 5.74515 12.0526 5.58132 12.3964C5.44243 12.6878 5.33918 12.9975 5.13269 13.617L4.25769 16.242M18.3373 8.11231L11.5203 14.9293C11.0586 15.391 10.8277 15.6219 10.5732 15.8204C10.2729 16.0547 9.948 16.2555 9.60422 16.4193C9.3128 16.5582 9.00306 16.6614 8.38359 16.8679L5.75858 17.7429M5.75858 17.7429L5.11692 17.9568C4.81207 18.0584 4.47597 17.9791 4.24875 17.7519C4.02153 17.5246 3.94219 17.1885 4.0438 16.8837L4.25769 16.242M5.75858 17.7429L4.25769 16.242" stroke="#344054" stroke-width="1.5"/>
</svg>
