<svg width="195" height="197" viewBox="0 0 195 197" fill="none" xmlns="http://www.w3.org/2000/svg">
<path d="M2.97896 167.007C10.3997 185.116 22.4993 188.885 31.0063 185.116C47.4585 177.826 90.1955 169.682 134.088 188.826C192.221 214.182 204.59 175.927 186.037 137.23C167.484 98.534 161.195 59.4016 182.583 37.8417C203.971 16.2819 175.983 -17.4454 126.278 17.6624C94.1568 40.3503 70.5836 35.2984 57.9248 28.8846C45.9944 22.8399 32.7263 16.5204 20.2953 21.4546C5.21173 27.4421 -0.731677 40.4232 22.2173 69.4231C54.738 110.518 -13.6556 126.418 2.97896 167.007Z" fill="#F9F8FA"/>
<path d="M33.1935 78.7952H148.683V167.613C148.683 167.794 148.611 167.968 148.483 168.096C148.355 168.223 148.182 168.295 148.001 168.295H33.8755C33.6946 168.295 33.5211 168.223 33.3932 168.096C33.2653 167.968 33.1935 167.794 33.1935 167.613V78.7952Z" fill="#E3E3E3"/>
<path d="M119.71 43.9893H66.0102L33.1935 78.7948H148.683L119.71 43.9893Z" fill="#8B8B8B"/>
<path d="M44.1321 30.0671L66.0099 43.9895L33.1933 78.795L8.33205 59.9005L44.1321 30.0671Z" fill="#E3E3E3"/>
<path d="M141.588 30.0671L119.71 43.9895L148.682 78.795L177.388 59.9005L141.588 30.0671Z" fill="#E3E3E3"/>
<path d="M80.1181 30.7788C80.7355 30.4861 81.2158 29.9661 81.4587 29.3275C81.7017 28.6889 81.6884 27.9811 81.4216 27.3521L71.5797 4.14481C71.4403 3.81609 71.2359 3.51896 70.9787 3.27127C70.7216 3.02359 70.4169 2.83047 70.0832 2.70352C69.7495 2.57658 69.3935 2.51844 69.0368 2.5326C68.68 2.54675 68.3298 2.63291 68.0071 2.78589L66.111 3.68497C65.7884 3.83795 65.5001 4.05458 65.2633 4.32185C65.0266 4.58911 64.8463 4.9015 64.7334 5.24022C64.6204 5.57893 64.5772 5.93699 64.6061 6.29286C64.6351 6.64873 64.7358 6.99506 64.902 7.31104L76.6399 29.6191C76.9581 30.2237 77.4976 30.6821 78.1458 30.8982C78.794 31.1143 79.5007 31.0716 80.1181 30.7788Z" fill="#8B8B8B"/>
<path d="M92.4574 28.5291C92.9042 28.4972 93.3214 28.294 93.6219 27.9618C93.9224 27.6296 94.0829 27.1941 94.0699 26.7463L93.5837 10.2248C93.5768 9.99078 93.5227 9.76057 93.4245 9.54801C93.3264 9.33544 93.1863 9.14491 93.0127 8.98788C92.839 8.83085 92.6354 8.71055 92.4141 8.63421C92.1927 8.55788 91.9583 8.52708 91.7247 8.54368L90.352 8.64148C90.1186 8.6581 89.8909 8.72175 89.6827 8.82859C89.4745 8.93543 89.29 9.08327 89.1403 9.26322C88.9907 9.44317 88.8789 9.65152 88.8119 9.87574C88.7448 10.1 88.7237 10.3354 88.7499 10.568L90.6088 26.9919C90.659 27.4371 90.8795 27.8457 91.224 28.1322C91.5685 28.4187 92.0104 28.5609 92.4574 28.5291Z" fill="#8B8B8B"/>
<path d="M101.983 34.6365C103.212 35.347 104.937 34.695 105.894 33.1581L122.886 5.86875C123.901 4.23851 123.661 2.25155 122.357 1.49789L120.54 0.447528C119.237 -0.306276 117.395 0.476445 116.488 2.16943L101.313 30.509C100.459 32.1051 100.754 33.9258 101.983 34.6365Z" fill="#8B8B8B"/>
</svg>
