<svg width="248" height="212" viewBox="0 0 248 212" fill="none" xmlns="http://www.w3.org/2000/svg">
<path d="M168.158 9.19421C168.158 9.19421 134.137 52.1726 79.7021 26.5358C25.2675 0.89908 -29.1665 70.2686 17.7071 112.493C64.5806 154.717 18.7114 177.919 50.5565 203.797C86.7503 233.208 118.26 173.567 146.99 187.139C210.397 217.093 257.371 205.235 246.787 170.551C228.207 109.668 204.449 105.708 222.593 74.0387C240.738 42.3698 200.692 -23.4756 168.158 9.19421Z" fill="white"/>
<path d="M164.72 87.7667C164.72 87.7667 199.345 85.5243 202.044 51.4407C198.896 49.1984 194.399 35.7444 202.044 34.3991C209.688 33.0537 215.084 34.3991 215.084 34.3991C215.084 34.3991 229.024 45.1621 211.487 53.2345C211.037 57.7193 210.587 97.6329 174.613 115.123C138.639 132.613 164.72 87.7667 164.72 87.7667Z" fill="#E3E3E3"/>
<path d="M221.899 12.5085L208.017 9.98583C207.247 9.8459 206.509 10.355 206.369 11.1229L201.367 38.4991C201.226 39.267 201.737 40.003 202.507 40.1429L216.389 42.6656C217.159 42.8055 217.896 42.2965 218.037 41.5285L223.039 14.1523C223.179 13.3844 222.669 12.6485 221.899 12.5085Z" fill="#8B8B8B"/>
<path d="M182.132 112.504C182.132 131.501 173.696 148.543 160.35 160.113C148.861 170.058 134.155 175.524 118.943 175.505C96.4774 175.505 76.7637 163.826 65.5578 146.211C59.5123 136.68 56.1418 125.705 55.7978 114.432C55.4538 103.16 58.1489 92.0012 63.6021 82.121C69.0552 72.2409 77.0666 64.0009 86.8007 58.2606C96.5347 52.5203 107.635 49.4898 118.943 49.4854C148.244 49.4854 172.905 69.3795 180.027 96.3771C181.435 101.638 182.142 107.06 182.132 112.504V112.504Z" fill="#CCCCCC"/>
<path d="M160.349 160.113C148.861 170.058 134.155 175.524 118.943 175.505C96.4773 175.505 76.7635 163.826 65.5576 146.211C75.4146 138.156 80.9725 139.017 84.6779 140.398C88.7249 141.923 90.9732 148.758 102.665 142.031C114.357 135.304 123.8 151.449 128.296 154.14C146.283 152.848 155.655 156.669 160.349 160.113Z" fill="#8B8B8B"/>
<path d="M180.028 96.3771C153.317 102.692 155.205 87.5335 152.579 78.3488C149.881 68.931 148.083 72.0702 131.444 85.0762C114.806 98.0823 113.007 77.0038 112.702 73.4162C112.378 69.8285 111.659 68.4837 103.115 69.5414C94.5711 70.5992 92.3226 63.9984 85.1278 68.4831C82.142 70.3487 78.0769 69.5055 74.3535 67.8731C80.2062 62.0316 87.158 57.4002 94.8099 54.2447C102.462 51.0893 110.663 49.472 118.943 49.4857C148.244 49.4854 172.905 69.3795 180.028 96.3771Z" fill="#8B8B8B"/>
<path d="M65.2886 44.7497C64.9994 45.7238 65.0063 46.7614 65.3084 47.7315C65.6105 48.7017 66.1943 49.5606 66.9859 50.1999C67.7775 50.8391 68.7414 51.2299 69.7557 51.3228C70.77 51.4157 71.7891 51.2065 72.6843 50.7218C73.5794 50.237 74.3102 49.4984 74.7845 48.5994C75.2587 47.7004 75.455 46.6814 75.3485 45.6711C75.242 44.6609 74.8376 43.7048 74.1862 42.9238C73.5349 42.1428 72.666 41.5719 71.6894 41.2834C70.3797 40.8968 68.9697 41.0447 67.7693 41.6948C66.569 42.3448 65.6767 43.4437 65.2886 44.7497V44.7497Z" fill="#E3E3E3"/>
<path d="M62.644 32.2829C60.8071 33.2711 59.1851 34.6131 57.8719 36.2309C56.5588 37.8488 55.5805 39.7105 54.9939 41.7081C54.8799 42.0871 54.842 42.4848 54.8824 42.8784C54.9228 43.272 55.0408 43.6538 55.2295 44.0019C55.4182 44.3499 55.6739 44.6574 55.982 44.9066C56.2902 45.1559 56.6446 45.3421 57.025 45.4544C57.4054 45.5667 57.8043 45.6031 58.1989 45.5613C58.5934 45.5196 58.9758 45.4006 59.3241 45.2111C59.6724 45.0216 59.9798 44.7655 60.2286 44.4573C60.4774 44.1491 60.6627 43.7949 60.774 43.4151C61.1414 42.1771 61.7497 41.0234 62.5643 40.0199C63.3788 39.0164 64.3836 38.1828 65.5213 37.5666C66.6589 36.9505 67.9071 36.5639 69.1946 36.4289C70.4821 36.294 71.7837 36.4133 73.0249 36.7801C73.4049 36.8938 73.8037 36.9316 74.1984 36.8913C74.593 36.851 74.9758 36.7333 75.3248 36.5451C75.6738 36.3569 75.9821 36.1019 76.2321 35.7946C76.482 35.4873 76.6687 35.1338 76.7813 34.7544C76.894 34.375 76.9304 33.9772 76.8885 33.5837C76.8467 33.1903 76.7273 32.8089 76.5374 32.4615C76.3474 32.1142 76.0905 31.8076 75.7815 31.5595C75.4725 31.3113 75.1173 31.1265 74.7365 31.0155C72.737 30.4186 70.6387 30.2232 68.563 30.4407C66.4872 30.6583 64.4754 31.2844 62.644 32.2829V32.2829Z" fill="#E3E3E3"/>
<path d="M57.9073 23.5837C54.9226 25.1896 52.287 27.37 50.153 29.9987C48.019 32.6274 46.4291 35.6521 45.4752 38.8978C45.2482 39.6623 45.3349 40.4853 45.7164 41.1859C46.0979 41.8865 46.7428 42.4073 47.5093 42.6337C48.2758 42.8601 49.1011 42.7735 49.8036 42.3931C50.5061 42.0126 51.0283 41.3694 51.2553 40.605C51.9928 38.1204 53.2138 35.805 54.8486 33.7911C56.4834 31.7772 58.5 30.1041 60.7832 28.8675C63.0664 27.631 65.5715 26.855 68.1555 26.5841C70.7394 26.3131 73.3515 26.5525 75.8427 27.2884C76.2227 27.4022 76.6215 27.4399 77.0161 27.3996C77.4108 27.3593 77.7936 27.2417 78.1426 27.0535C78.4916 26.8653 78.7999 26.6102 79.0499 26.3029C79.2998 25.9956 79.4864 25.6422 79.5991 25.2628C79.7117 24.8834 79.7482 24.4855 79.7063 24.0921C79.6645 23.6986 79.5451 23.3172 79.3551 22.9699C79.1652 22.6225 78.9083 22.316 78.5993 22.0678C78.2902 21.8197 77.9351 21.6348 77.5543 21.5239C74.3056 20.5543 70.8963 20.2372 67.5239 20.5907C64.1515 20.9443 60.8828 21.9616 57.9073 23.5837V23.5837Z" fill="#E3E3E3"/>
<path d="M80.3806 12.011C75.8777 10.6807 71.1562 10.2481 66.4856 10.7379C61.8151 11.2277 57.287 12.6302 53.16 14.8654C49.033 17.1006 45.3879 20.1246 42.4329 23.7649C39.4779 27.4052 37.2708 31.5903 35.9377 36.0813C35.8237 36.4603 35.7858 36.858 35.8262 37.2516C35.8667 37.6452 35.9846 38.027 36.1733 38.3751C36.362 38.7231 36.6178 39.0306 36.9259 39.2799C37.234 39.5292 37.5884 39.7153 37.9689 39.8276C38.3493 39.94 38.7482 39.9763 39.1427 39.9346C39.5372 39.8928 39.9196 39.7738 40.2679 39.5843C40.6162 39.3949 40.9236 39.1387 41.1724 38.8305C41.4212 38.5223 41.6066 38.1681 41.7178 37.7883C42.826 34.0545 44.6609 30.5749 47.1177 27.5484C49.5745 24.5218 52.605 22.0076 56.0362 20.1492C59.4674 18.2909 63.232 17.1249 67.1152 16.7178C70.9983 16.3107 74.9238 16.6704 78.6674 17.7765C79.4328 17.9989 80.2553 17.91 80.9551 17.5291C81.6548 17.1482 82.1749 16.5064 82.4014 15.7442C82.6279 14.9819 82.5424 14.1611 82.1637 13.4615C81.785 12.7619 81.1439 12.2404 80.3806 12.011V12.011Z" fill="#E3E3E3"/>
</svg>
