<svg width="40" height="40" viewBox="0 0 40 40" fill="none" xmlns="http://www.w3.org/2000/svg">
<path d="M4.00049 4C4.00049 1.79086 5.79135 0 8.00049 0H24.0005L36.0005 12V36C36.0005 38.2091 34.2096 40 32.0005 40H8.00049C5.79135 40 4.00049 38.2091 4.00049 36V4Z" fill="#1D6F42"/>
<path opacity="0.3" d="M24.0005 0L36.0005 12H28.0005C25.7913 12 24.0005 10.2091 24.0005 8V0Z" fill="white"/>
<path d="M10.8641 26.2727L12.6241 29.2472H12.6922L14.4607 26.2727H16.5445L13.8812 30.6364L16.6042 35H14.482L12.6922 32.0213H12.6241L10.8343 35H8.72066L11.4522 30.6364L8.7718 26.2727H10.8641ZM17.7121 35V26.2727H19.5573V33.4787H23.2988V35H17.7121ZM29.2551 28.7827C29.221 28.4389 29.0747 28.1719 28.8162 27.9815C28.5577 27.7912 28.2068 27.696 27.7636 27.696C27.4625 27.696 27.2082 27.7386 27.0008 27.8239C26.7935 27.9062 26.6344 28.0213 26.5236 28.169C26.4156 28.3168 26.3616 28.4844 26.3616 28.6719C26.356 28.8281 26.3886 28.9645 26.4597 29.081C26.5335 29.1974 26.6344 29.2983 26.7622 29.3835C26.89 29.4659 27.0378 29.5384 27.2054 29.6009C27.373 29.6605 27.552 29.7116 27.7423 29.7543L28.5264 29.9418C28.9071 30.027 29.2565 30.1406 29.5747 30.2827C29.8929 30.4247 30.1685 30.5994 30.4014 30.8068C30.6344 31.0142 30.8148 31.2585 30.9426 31.5398C31.0733 31.821 31.14 32.1435 31.1429 32.5071C31.14 33.0412 31.0037 33.5043 30.7338 33.8963C30.4668 34.2855 30.0804 34.5881 29.5747 34.804C29.0719 35.017 28.4653 35.1236 27.7551 35.1236C27.0506 35.1236 26.4369 35.0156 25.9142 34.7997C25.3943 34.5838 24.9881 34.2642 24.6954 33.8409C24.4057 33.4148 24.2537 32.8878 24.2395 32.2599H26.025C26.0449 32.5526 26.1287 32.7969 26.2764 32.9929C26.427 33.1861 26.6273 33.3324 26.8773 33.4318C27.1301 33.5284 27.4156 33.5767 27.7338 33.5767C28.0463 33.5767 28.3176 33.5312 28.5477 33.4403C28.7807 33.3494 28.9611 33.223 29.0889 33.0611C29.2168 32.8991 29.2807 32.7131 29.2807 32.5028C29.2807 32.3068 29.2224 32.142 29.106 32.0085C28.9923 31.875 28.8247 31.7614 28.6031 31.6676C28.3844 31.5739 28.1159 31.4886 27.7977 31.4119L26.8474 31.1733C26.1116 30.9943 25.5307 30.7145 25.1045 30.3338C24.6784 29.9531 24.4668 29.4403 24.4696 28.7955C24.4668 28.267 24.6074 27.8054 24.8915 27.4105C25.1784 27.0156 25.5719 26.7074 26.0719 26.4858C26.5719 26.2642 27.14 26.1534 27.7764 26.1534C28.4241 26.1534 28.9895 26.2642 29.4724 26.4858C29.9582 26.7074 30.3361 27.0156 30.606 27.4105C30.8758 27.8054 31.015 28.2628 31.0236 28.7827H29.2551Z" fill="white"/>
</svg>
