<svg width="28" height="28" viewBox="0 0 28 28" fill="none" xmlns="http://www.w3.org/2000/svg">
<path d="M16.2919 2.71023L15.0032 11.4376H21.84C22.0211 11.4376 22.1673 11.5874 22.1673 11.7685C22.1673 11.8497 22.1385 11.9246 22.0911 11.9808L12.2941 25.5307C12.187 25.6785 11.9832 25.7097 11.8391 25.6035C11.7382 25.5286 11.6908 25.4058 11.7073 25.2893L12.9981 16.5599H6.15927C5.98018 16.5599 5.83398 16.4121 5.83398 16.231C5.83398 16.1498 5.86282 16.0749 5.91017 16.0166L15.7052 2.46667C15.8123 2.32099 16.016 2.28978 16.1622 2.39588C16.2631 2.47085 16.3084 2.59362 16.2919 2.71023Z" fill="white"/>
<rect x="8.18301" y="2.31699" width="25" height="2" transform="rotate(60 8.18301 2.31699)" fill="white" stroke="black"/>
</svg>
