<svg width="336" height="298" viewBox="0 0 336 298" fill="none" xmlns="http://www.w3.org/2000/svg">
<path d="M176.631 18.7553C176.631 18.7553 152.508 81.9629 78.758 71.9022C5.0078 61.8415 -33.3634 163.684 37.6484 196.079C108.66 228.474 63.1986 272.77 110.395 291.47C164.037 312.725 178.992 230.82 217.931 236.179C303.873 248.006 354.862 216.663 329.461 179.725C284.873 114.886 255.376 119.009 264.983 74.9967C274.591 30.9843 202.836 -31.7593 176.631 18.7553Z" fill="#1AA189" fill-opacity="0.05"/>
<path d="M57.1682 51.289C56.9429 51.2747 56.7319 51.1736 56.5797 51.0069C56.4274 50.8402 56.3458 50.621 56.3519 50.3953L56.4145 41.8916C56.4131 41.7733 56.4355 41.656 56.4804 41.5466C56.5254 41.4372 56.5918 41.3379 56.6759 41.2547C56.76 41.1716 56.8599 41.1062 56.9698 41.0624C57.0797 41.0187 57.1973 40.9976 57.3155 41.0002L57.9953 41.0306C58.1131 41.0384 58.2281 41.0699 58.3335 41.1233C58.4388 41.1766 58.5323 41.2508 58.6082 41.3412C58.6841 41.4316 58.741 41.5365 58.7753 41.6495C58.8097 41.7624 58.8209 41.8812 58.8081 41.9986L58.0657 50.4719C58.0502 50.6975 57.9482 50.9084 57.781 51.0606C57.6138 51.2128 57.3943 51.2946 57.1682 51.289Z" fill="#13C7A7"/>
<path d="M53.1916 52.2103C53.0528 52.2583 52.9006 52.2492 52.7684 52.185C52.6363 52.1208 52.5351 52.0068 52.487 51.8679L50.5789 46.6702C50.5235 46.5224 50.5291 46.3587 50.5943 46.2151C50.6595 46.0714 50.779 45.9594 50.9267 45.9038L51.3499 45.7538C51.4226 45.7289 51.4996 45.7192 51.5762 45.7255C51.6528 45.7318 51.7272 45.7539 51.7948 45.7904C51.8624 45.8269 51.9217 45.8771 51.9689 45.9376C52.0162 45.9982 52.0504 46.0679 52.0693 46.1424L53.5543 51.49C53.5954 51.6336 53.5809 51.7875 53.5137 51.921C53.4465 52.0545 53.3315 52.1577 53.1916 52.2103Z" fill="#13C7A7"/>
<path d="M51.0992 55.3588C50.8195 55.741 50.2217 55.7649 49.7441 55.413L41.2629 49.1644C40.7563 48.7912 40.5814 48.1422 40.8781 47.7368L41.2916 47.1717C41.5883 46.7663 42.2372 46.7675 42.7192 47.1747L50.7867 53.9883C51.2411 54.372 51.3789 54.9766 51.0992 55.3588Z" fill="#13C7A7"/>
<path d="M110.672 68.86L58.3462 56.4039C56.4071 55.9423 54.461 57.14 53.9994 59.0791L46.3046 91.4036C45.843 93.3427 47.0407 95.2888 48.9798 95.7504L101.306 108.207C103.245 108.668 105.191 107.47 105.652 105.531L113.347 73.2068C113.809 71.2677 112.611 69.3216 110.672 68.86Z" fill="#1AA189"/>
<path d="M112.621 76.2581L53.2734 62.1304L51.6632 68.8945L111.011 83.0222L112.621 76.2581Z" fill="#13C7A7"/>
<path d="M103.108 101.524L91.3073 98.7148C91.2697 98.7058 91.232 98.7291 91.2231 98.7666L90.4754 101.907C90.4665 101.945 90.4897 101.983 90.5273 101.991L102.328 104.801C102.366 104.81 102.403 104.786 102.412 104.749L103.16 101.608C103.169 101.571 103.146 101.533 103.108 101.524Z" fill="white"/>
<path d="M80.3562 51.8939L19.4123 72.8881C17.5278 73.5373 16.5263 75.5913 17.1755 77.4759L30.302 115.581C30.9512 117.465 33.0052 118.467 34.8898 117.817L95.8337 96.8233C97.7183 96.1741 98.7197 94.1201 98.0705 92.2355L84.9441 54.1307C84.2949 52.2462 82.2408 51.2447 80.3562 51.8939Z" fill="#13C7A7"/>
<path d="M79.0899 56.8198L71.981 59.2687C70.8502 59.6582 70.2494 60.8906 70.6389 62.0214L73.0878 69.1302C73.4773 70.261 74.7097 70.8619 75.8405 70.4724L82.9493 68.0235C84.0801 67.6339 84.681 66.4015 84.2915 65.2708L81.8426 58.1619C81.453 57.0311 80.2206 56.4303 79.0899 56.8198Z" fill="white"/>
<path d="M54.1915 90.8884L30.5455 99.0341C30.4778 99.0574 30.4418 99.1312 30.4651 99.1989L31.6695 102.695C31.6929 102.763 31.7667 102.799 31.8344 102.776L55.4804 94.63C55.5482 94.6067 55.5842 94.5329 55.5608 94.4651L54.3564 90.9688C54.3331 90.901 54.2592 90.8651 54.1915 90.8884Z" fill="white"/>
<path d="M66.7797 94.6336L33.0328 106.259C32.9651 106.282 32.9291 106.356 32.9524 106.424L34.1568 109.92C34.1802 109.988 34.254 110.024 34.3217 110L68.0686 98.3752C68.1363 98.3519 68.1723 98.278 68.149 98.2103L66.9446 94.714C66.9212 94.6462 66.8474 94.6102 66.7797 94.6336Z" fill="white"/>
<path d="M206.261 112.015L264.44 157.094C264.954 157.492 265.54 157.784 266.167 157.955C266.793 158.126 267.447 158.172 268.091 158.091C268.736 158.009 269.357 157.801 269.921 157.479C270.485 157.157 270.98 156.727 271.378 156.214L299.223 120.276C299.621 119.763 299.913 119.176 300.084 118.55C300.256 117.923 300.301 117.27 300.22 116.625C300.138 115.981 299.93 115.359 299.608 114.795C299.286 114.232 298.856 113.737 298.343 113.339L239.842 67.8715C237.849 66.3225 237.738 63.176 239.08 61.597L236.255 65.2314L205.381 105.078C204.983 105.591 204.69 106.177 204.519 106.804C204.348 107.43 204.302 108.084 204.384 108.729C204.466 109.373 204.673 109.995 204.995 110.559C205.318 111.122 205.747 111.617 206.261 112.015Z" fill="#1AA189"/>
<path d="M268.83 113.375L291.251 130.747C292.032 131.352 292.54 132.242 292.664 133.221C292.788 134.2 292.518 135.189 291.914 135.969L284.749 145.217C284.144 145.997 283.254 146.505 282.275 146.629C281.296 146.754 280.307 146.484 279.527 145.879L257.106 128.507C256.956 128.391 256.859 128.221 256.835 128.034C256.811 127.846 256.863 127.657 256.979 127.508L267.831 113.502C267.946 113.352 268.117 113.255 268.304 113.231C268.491 113.208 268.681 113.259 268.83 113.375Z" fill="#13C7A7"/>
<path d="M267.547 130.033C269.458 131.519 272.211 131.174 273.696 129.263C275.182 127.353 274.837 124.6 272.926 123.114C271.015 121.629 268.262 121.974 266.777 123.884C265.291 125.795 265.636 128.548 267.547 130.033Z" fill="white"/>
<path d="M245.112 59.9037L295.305 98.9242C296.084 99.53 296.591 100.421 296.714 101.4C296.836 102.38 296.565 103.368 295.959 104.147L292.397 108.729L240.104 68.0753C239.102 67.2967 238.451 66.1522 238.293 64.8934C238.135 63.6347 238.484 62.3649 239.263 61.3633L239.889 60.5577C240.495 59.7784 241.386 59.2717 242.365 59.149C243.345 59.0264 244.333 59.2978 245.112 59.9037Z" fill="#13C7A7"/>
<path d="M281.617 93.5799C281.548 93.5269 281.501 93.4518 281.482 93.3675C281.463 93.2831 281.474 93.1948 281.513 93.1177C281.552 93.0406 281.617 92.9795 281.696 92.9449C281.775 92.9102 281.864 92.9043 281.947 92.928C281.963 92.9323 282.343 93.041 283.025 93.2584C283.119 93.2883 283.198 93.3544 283.243 93.4421C283.288 93.5298 283.297 93.6319 283.267 93.7259C283.237 93.82 283.171 93.8983 283.083 93.9436C282.996 93.989 282.894 93.9976 282.8 93.9677C282.128 93.7537 281.747 93.645 281.743 93.6439C281.697 93.6309 281.654 93.6092 281.617 93.5799Z" fill="#13C7A7"/>
<path d="M241.31 170.805C241.105 170.646 240.899 170.479 240.699 170.31C240.661 170.279 240.63 170.24 240.607 170.197C240.584 170.153 240.57 170.106 240.566 170.057C240.561 170.008 240.567 169.959 240.582 169.912C240.596 169.865 240.62 169.822 240.652 169.784C240.684 169.747 240.722 169.716 240.766 169.693C240.81 169.671 240.857 169.657 240.906 169.653C240.955 169.649 241.004 169.655 241.051 169.67C241.098 169.685 241.141 169.709 241.178 169.741C241.741 170.216 242.331 170.656 242.945 171.061C242.986 171.088 243.021 171.122 243.049 171.163C243.076 171.203 243.096 171.249 243.105 171.296C243.115 171.344 243.116 171.394 243.107 171.442C243.098 171.49 243.079 171.535 243.052 171.576C243.025 171.617 242.991 171.652 242.95 171.68C242.91 171.707 242.865 171.727 242.817 171.736C242.769 171.746 242.72 171.747 242.672 171.738C242.623 171.729 242.578 171.71 242.537 171.683C242.123 171.412 241.71 171.116 241.31 170.805ZM239.071 168.78C239.057 168.769 239.043 168.757 239.031 168.744C238.522 168.215 238.015 167.638 237.524 167.029C237.462 166.953 237.433 166.854 237.444 166.756C237.454 166.658 237.503 166.568 237.58 166.506C237.657 166.444 237.755 166.415 237.853 166.426C237.952 166.436 238.042 166.485 238.104 166.562C238.581 167.154 239.074 167.715 239.567 168.228C239.633 168.296 239.67 168.386 239.672 168.48C239.673 168.574 239.639 168.665 239.576 168.735C239.513 168.805 239.426 168.849 239.333 168.857C239.239 168.866 239.145 168.838 239.071 168.78L239.071 168.78ZM244.468 172.776C244.396 172.719 244.346 172.638 244.33 172.547C244.314 172.457 244.332 172.364 244.381 172.285C244.429 172.207 244.505 172.15 244.593 172.124C244.682 172.099 244.776 172.107 244.859 172.147C245.52 172.467 246.201 172.742 246.898 172.972C246.992 173.003 247.069 173.07 247.114 173.158C247.158 173.247 247.166 173.349 247.135 173.443C247.104 173.536 247.037 173.614 246.948 173.658C246.86 173.703 246.758 173.71 246.664 173.679C245.936 173.439 245.225 173.151 244.535 172.817C244.511 172.806 244.489 172.792 244.468 172.776L244.468 172.776ZM236.238 165.286C236.208 165.263 236.182 165.235 236.161 165.204C235.747 164.61 235.329 163.969 234.918 163.3C234.867 163.216 234.85 163.115 234.873 163.019C234.896 162.923 234.956 162.84 235.04 162.788C235.125 162.737 235.226 162.72 235.322 162.743C235.418 162.766 235.501 162.827 235.553 162.911C235.956 163.568 236.366 164.196 236.772 164.78C236.823 164.853 236.846 164.942 236.836 165.03C236.827 165.119 236.787 165.201 236.722 165.262C236.658 165.323 236.573 165.359 236.484 165.364C236.396 165.368 236.308 165.341 236.238 165.286ZM248.728 174.188C248.662 174.137 248.615 174.065 248.595 173.983C248.575 173.902 248.583 173.816 248.618 173.74C248.652 173.664 248.712 173.601 248.786 173.563C248.861 173.525 248.946 173.513 249.028 173.529C249.751 173.669 250.481 173.769 251.215 173.828C251.264 173.831 251.311 173.844 251.355 173.866C251.399 173.888 251.438 173.919 251.47 173.956C251.502 173.994 251.527 174.037 251.542 174.084C251.557 174.13 251.563 174.18 251.559 174.229C251.555 174.278 251.541 174.325 251.519 174.369C251.496 174.413 251.465 174.452 251.428 174.483C251.39 174.515 251.347 174.539 251.3 174.554C251.253 174.569 251.204 174.574 251.155 174.569C250.393 174.509 249.635 174.405 248.885 174.259C248.828 174.248 248.774 174.224 248.728 174.188ZM233.871 161.453C233.832 161.422 233.799 161.384 233.774 161.34C233.427 160.715 233.069 160.043 232.708 159.341C232.685 159.297 232.671 159.249 232.667 159.2C232.663 159.151 232.668 159.102 232.683 159.055C232.698 159.008 232.722 158.965 232.753 158.927C232.785 158.89 232.824 158.859 232.868 158.836C232.912 158.814 232.959 158.8 233.008 158.796C233.058 158.792 233.107 158.798 233.154 158.814C233.2 158.829 233.244 158.853 233.281 158.885C233.318 158.918 233.349 158.957 233.371 159.001C233.727 159.696 234.082 160.361 234.425 160.979C234.467 161.054 234.481 161.141 234.466 161.225C234.451 161.31 234.407 161.386 234.342 161.442C234.277 161.498 234.194 161.53 234.108 161.532C234.023 161.534 233.939 161.506 233.871 161.453L233.871 161.453ZM253.205 174.56C253.144 174.512 253.099 174.448 253.077 174.374C253.054 174.3 253.056 174.221 253.08 174.148C253.104 174.075 253.151 174.012 253.213 173.966C253.275 173.92 253.349 173.895 253.426 173.894C254.142 173.881 254.887 173.835 255.641 173.759C255.739 173.749 255.837 173.778 255.913 173.84C255.99 173.903 256.039 173.993 256.049 174.091C256.058 174.189 256.029 174.288 255.967 174.364C255.904 174.441 255.814 174.489 255.716 174.499C254.942 174.578 254.176 174.625 253.44 174.638C253.355 174.64 253.272 174.612 253.205 174.56L253.205 174.56ZM231.808 157.446C231.763 157.411 231.726 157.366 231.701 157.314C231.396 156.683 231.08 156.015 230.736 155.271C230.715 155.226 230.704 155.178 230.702 155.129C230.699 155.081 230.707 155.032 230.724 154.986C230.741 154.94 230.766 154.898 230.8 154.862C230.833 154.826 230.873 154.797 230.917 154.776C230.961 154.756 231.009 154.744 231.058 154.742C231.107 154.74 231.156 154.748 231.201 154.765C231.247 154.781 231.29 154.807 231.325 154.84C231.361 154.873 231.391 154.913 231.411 154.957C231.754 155.698 232.068 156.363 232.371 156.99C232.408 157.066 232.418 157.152 232.4 157.234C232.381 157.316 232.336 157.389 232.27 157.442C232.205 157.494 232.124 157.524 232.04 157.524C231.956 157.525 231.874 157.497 231.808 157.446ZM229.907 153.358C229.859 153.321 229.822 153.272 229.797 153.217C229.508 152.579 229.219 151.937 228.929 151.292L228.871 151.161C228.85 151.117 228.838 151.068 228.837 151.019C228.835 150.97 228.843 150.921 228.86 150.875C228.877 150.829 228.903 150.786 228.937 150.751C228.971 150.715 229.011 150.686 229.056 150.666C229.101 150.645 229.149 150.634 229.198 150.633C229.248 150.632 229.297 150.64 229.343 150.658C229.388 150.676 229.43 150.702 229.466 150.736C229.501 150.77 229.53 150.811 229.55 150.856L229.608 150.987C229.898 151.631 230.187 152.272 230.475 152.911C230.509 152.986 230.517 153.071 230.498 153.152C230.478 153.233 230.432 153.305 230.366 153.357C230.301 153.408 230.22 153.436 230.137 153.436C230.054 153.437 229.973 153.409 229.907 153.358L229.907 153.358ZM257.678 174.113C257.621 174.069 257.578 174.009 257.555 173.941C257.531 173.873 257.528 173.799 257.546 173.73C257.563 173.66 257.6 173.596 257.653 173.547C257.706 173.498 257.772 173.465 257.843 173.453C258.551 173.33 259.285 173.179 260.025 173.004C260.121 172.982 260.221 172.999 260.304 173.051C260.387 173.103 260.447 173.186 260.469 173.281C260.492 173.377 260.476 173.477 260.425 173.561C260.373 173.645 260.292 173.705 260.196 173.728C259.442 173.906 258.693 174.06 257.97 174.186C257.919 174.195 257.867 174.193 257.817 174.181C257.766 174.168 257.719 174.145 257.678 174.114L257.678 174.113ZM228.056 149.25C228.009 149.213 227.971 149.165 227.946 149.11C227.602 148.352 227.295 147.683 227.008 147.066C226.967 146.977 226.962 146.874 226.996 146.781C227.03 146.689 227.099 146.613 227.189 146.571C227.278 146.53 227.381 146.525 227.474 146.559C227.566 146.593 227.642 146.662 227.684 146.752C227.971 147.371 228.279 148.042 228.624 148.802C228.658 148.878 228.666 148.963 228.647 149.044C228.627 149.125 228.581 149.197 228.515 149.249C228.45 149.3 228.369 149.328 228.286 149.328C228.203 149.329 228.122 149.301 228.056 149.25L228.056 149.25ZM262.059 173.086C262.004 173.044 261.963 172.987 261.939 172.923C261.915 172.859 261.909 172.789 261.922 172.722C261.935 172.655 261.966 172.592 262.012 172.541C262.058 172.491 262.118 172.454 262.183 172.435C262.878 172.233 263.595 172.008 264.316 171.764C264.409 171.733 264.511 171.74 264.6 171.784C264.688 171.827 264.756 171.905 264.787 171.998C264.819 172.092 264.812 172.194 264.768 172.282C264.724 172.371 264.647 172.438 264.554 172.47C263.823 172.716 263.095 172.945 262.391 173.15C262.334 173.166 262.275 173.169 262.217 173.158C262.159 173.147 262.105 173.122 262.058 173.086L262.059 173.086ZM226.153 145.166C226.108 145.131 226.071 145.086 226.046 145.034C225.702 144.322 225.376 143.664 225.048 143.021C225.005 142.934 224.998 142.832 225.029 142.739C225.06 142.646 225.126 142.569 225.213 142.525C225.3 142.48 225.402 142.472 225.495 142.502C225.588 142.532 225.666 142.597 225.712 142.683C226.041 143.33 226.37 143.993 226.717 144.711C226.753 144.786 226.763 144.872 226.745 144.954C226.726 145.036 226.681 145.109 226.615 145.162C226.55 145.215 226.469 145.244 226.385 145.245C226.301 145.245 226.219 145.218 226.153 145.166ZM224.101 141.15C224.061 141.119 224.027 141.079 224.003 141.034C223.635 140.359 223.264 139.702 222.899 139.082C222.874 139.039 222.858 138.993 222.851 138.944C222.844 138.896 222.847 138.847 222.859 138.799C222.871 138.752 222.893 138.708 222.922 138.669C222.952 138.63 222.988 138.597 223.031 138.572C223.073 138.547 223.119 138.531 223.168 138.524C223.216 138.517 223.265 138.52 223.313 138.532C223.36 138.545 223.404 138.566 223.443 138.596C223.483 138.625 223.515 138.662 223.54 138.704C223.909 139.331 224.285 139.995 224.657 140.678C224.698 140.754 224.711 140.84 224.696 140.925C224.68 141.009 224.636 141.085 224.571 141.14C224.506 141.195 224.423 141.227 224.338 141.229C224.252 141.23 224.169 141.203 224.101 141.15ZM221.809 137.266C221.776 137.24 221.747 137.209 221.725 137.173C221.312 136.533 220.89 135.91 220.47 135.321C220.441 135.281 220.421 135.236 220.41 135.189C220.399 135.141 220.398 135.092 220.406 135.043C220.414 134.995 220.431 134.949 220.457 134.908C220.483 134.866 220.517 134.83 220.557 134.802C220.596 134.773 220.641 134.753 220.689 134.742C220.737 134.731 220.786 134.73 220.834 134.738C220.882 134.746 220.928 134.763 220.97 134.789C221.011 134.815 221.047 134.849 221.076 134.889C221.503 135.487 221.932 136.12 222.35 136.77C222.398 136.844 222.418 136.932 222.407 137.02C222.395 137.107 222.354 137.187 222.289 137.246C222.224 137.306 222.14 137.34 222.052 137.344C221.965 137.347 221.878 137.32 221.809 137.266ZM266.325 171.65C266.273 171.61 266.232 171.556 266.208 171.495C266.183 171.433 266.176 171.367 266.185 171.301C266.195 171.236 266.222 171.175 266.264 171.123C266.305 171.072 266.359 171.032 266.421 171.009C267.1 170.751 267.8 170.472 268.502 170.18C268.547 170.16 268.596 170.149 268.645 170.148C268.695 170.147 268.744 170.156 268.79 170.175C268.836 170.193 268.878 170.22 268.913 170.255C268.948 170.29 268.976 170.331 268.995 170.377C269.015 170.423 269.024 170.472 269.024 170.522C269.024 170.571 269.014 170.62 268.995 170.666C268.975 170.711 268.947 170.753 268.911 170.787C268.876 170.822 268.834 170.849 268.788 170.867C268.079 171.162 267.371 171.444 266.685 171.705C266.625 171.727 266.561 171.734 266.498 171.725C266.435 171.715 266.375 171.69 266.324 171.651L266.325 171.65ZM206.734 124.252C206.664 124.197 206.615 124.119 206.598 124.031C206.58 123.944 206.595 123.853 206.638 123.775C206.682 123.697 206.752 123.638 206.836 123.608C206.92 123.577 207.012 123.578 207.096 123.61C207.807 123.882 208.513 124.184 209.193 124.509C209.282 124.551 209.351 124.628 209.384 124.721C209.416 124.814 209.411 124.916 209.368 125.005C209.326 125.094 209.25 125.163 209.157 125.196C209.064 125.228 208.961 125.223 208.872 125.18C208.211 124.864 207.523 124.57 206.83 124.306C206.796 124.292 206.763 124.274 206.734 124.252ZM219.187 133.6C219.163 133.582 219.142 133.561 219.124 133.538C218.653 132.949 218.167 132.378 217.68 131.841C217.615 131.767 217.582 131.671 217.588 131.574C217.593 131.476 217.637 131.385 217.709 131.319C217.782 131.253 217.877 131.219 217.975 131.223C218.072 131.227 218.165 131.269 218.231 131.341C218.729 131.889 219.225 132.472 219.706 133.073C219.763 133.145 219.792 133.234 219.787 133.325C219.782 133.416 219.744 133.503 219.68 133.568C219.616 133.633 219.531 133.672 219.44 133.678C219.349 133.684 219.259 133.656 219.187 133.6L219.187 133.6ZM210.794 126.192C210.719 126.134 210.67 126.05 210.655 125.957C210.64 125.863 210.661 125.768 210.714 125.69C210.767 125.612 210.848 125.556 210.94 125.536C211.032 125.515 211.129 125.53 211.21 125.577C211.863 125.958 212.509 126.373 213.132 126.809C213.173 126.837 213.207 126.873 213.233 126.914C213.259 126.955 213.277 127.001 213.286 127.049C213.294 127.097 213.293 127.147 213.282 127.194C213.272 127.242 213.252 127.287 213.224 127.327C213.196 127.367 213.16 127.401 213.119 127.428C213.078 127.454 213.032 127.472 212.984 127.48C212.936 127.489 212.886 127.488 212.838 127.477C212.791 127.467 212.746 127.447 212.705 127.419C212.099 126.994 211.47 126.591 210.835 126.22C210.821 126.212 210.807 126.202 210.794 126.192ZM216.161 130.271C216.151 130.263 216.141 130.254 216.131 130.245C215.593 129.728 215.035 129.23 214.473 128.765C214.397 128.702 214.349 128.612 214.34 128.514C214.33 128.415 214.36 128.317 214.423 128.241C214.486 128.165 214.577 128.117 214.675 128.108C214.773 128.098 214.871 128.129 214.948 128.191C215.524 128.668 216.096 129.178 216.647 129.708C216.716 129.774 216.757 129.864 216.761 129.959C216.765 130.054 216.733 130.147 216.671 130.219C216.609 130.291 216.521 130.337 216.426 130.346C216.332 130.356 216.237 130.329 216.161 130.271L216.161 130.271ZM270.482 169.921C270.431 169.882 270.391 169.83 270.367 169.771C270.342 169.712 270.333 169.647 270.341 169.583C270.348 169.52 270.372 169.459 270.41 169.407C270.448 169.356 270.499 169.315 270.557 169.288C271.223 168.989 271.907 168.67 272.591 168.342C272.635 168.321 272.682 168.308 272.731 168.306C272.78 168.303 272.829 168.31 272.875 168.326C272.921 168.342 272.964 168.367 273 168.4C273.036 168.433 273.066 168.472 273.087 168.516C273.108 168.56 273.121 168.608 273.123 168.657C273.126 168.706 273.119 168.755 273.103 168.801C273.087 168.847 273.062 168.889 273.029 168.926C272.996 168.962 272.957 168.992 272.913 169.013C272.224 169.344 271.534 169.665 270.863 169.967C270.801 169.995 270.733 170.005 270.666 169.997C270.599 169.989 270.535 169.963 270.482 169.921L270.482 169.921ZM274.542 167.973C274.492 167.935 274.453 167.884 274.428 167.827C274.404 167.769 274.394 167.706 274.4 167.644C274.406 167.582 274.427 167.522 274.463 167.47C274.498 167.418 274.546 167.376 274.602 167.348C275.254 167.016 275.924 166.668 276.593 166.312C276.636 166.289 276.684 166.274 276.732 166.27C276.781 166.265 276.83 166.27 276.877 166.284C276.923 166.298 276.967 166.322 277.005 166.353C277.042 166.384 277.074 166.422 277.097 166.465C277.12 166.508 277.134 166.556 277.139 166.604C277.143 166.653 277.138 166.702 277.124 166.749C277.11 166.796 277.087 166.839 277.055 166.877C277.024 166.915 276.986 166.946 276.943 166.969C276.27 167.327 275.596 167.678 274.939 168.011C274.876 168.043 274.805 168.057 274.735 168.05C274.665 168.043 274.598 168.017 274.542 167.973L274.542 167.973ZM278.518 165.858C278.469 165.82 278.431 165.771 278.406 165.714C278.381 165.658 278.37 165.597 278.375 165.535C278.38 165.474 278.4 165.415 278.433 165.363C278.466 165.311 278.512 165.268 278.565 165.238C279.206 164.883 279.863 164.51 280.52 164.132C280.563 164.107 280.61 164.09 280.658 164.083C280.707 164.076 280.757 164.079 280.805 164.092C280.852 164.104 280.897 164.126 280.936 164.156C280.976 164.186 281.008 164.223 281.033 164.266C281.058 164.309 281.074 164.356 281.08 164.405C281.086 164.454 281.082 164.503 281.069 164.551C281.056 164.598 281.034 164.643 281.003 164.682C280.973 164.72 280.935 164.753 280.892 164.777C280.232 165.157 279.571 165.532 278.927 165.889C278.863 165.925 278.79 165.94 278.718 165.935C278.645 165.929 278.575 165.902 278.518 165.858L278.518 165.858ZM282.42 163.609C282.373 163.572 282.335 163.524 282.31 163.469C282.285 163.413 282.274 163.353 282.278 163.293C282.281 163.232 282.3 163.173 282.331 163.122C282.363 163.07 282.407 163.027 282.459 162.996C283.089 162.62 283.736 162.229 284.381 161.832C284.465 161.781 284.567 161.765 284.663 161.788C284.759 161.811 284.842 161.871 284.893 161.955C284.945 162.039 284.961 162.14 284.938 162.236C284.915 162.332 284.855 162.415 284.771 162.467C284.122 162.865 283.473 163.258 282.839 163.635C282.775 163.673 282.701 163.691 282.626 163.687C282.551 163.682 282.48 163.655 282.421 163.609L282.42 163.609ZM286.26 161.254C286.213 161.217 286.175 161.17 286.15 161.115C286.125 161.061 286.114 161.002 286.117 160.942C286.12 160.882 286.137 160.824 286.167 160.772C286.197 160.721 286.239 160.677 286.29 160.645C286.912 160.253 287.55 159.846 288.185 159.436C288.226 159.408 288.272 159.39 288.32 159.38C288.369 159.371 288.418 159.371 288.467 159.381C288.515 159.391 288.561 159.411 288.601 159.439C288.642 159.467 288.677 159.502 288.703 159.544C288.73 159.585 288.748 159.631 288.757 159.68C288.766 159.728 288.765 159.778 288.754 159.826C288.743 159.874 288.723 159.92 288.695 159.96C288.667 160 288.631 160.035 288.589 160.061C287.951 160.473 287.311 160.881 286.687 161.275C286.622 161.316 286.547 161.336 286.47 161.332C286.394 161.328 286.321 161.301 286.26 161.254L286.26 161.254ZM290.043 158.807C289.996 158.771 289.959 158.724 289.934 158.67C289.909 158.617 289.897 158.558 289.899 158.499C289.901 158.44 289.917 158.383 289.946 158.331C289.975 158.28 290.016 158.236 290.065 158.203C290.695 157.784 291.322 157.36 291.927 156.945C292.008 156.889 292.109 156.868 292.206 156.886C292.303 156.904 292.389 156.96 292.444 157.041C292.5 157.122 292.522 157.223 292.504 157.32C292.486 157.417 292.43 157.503 292.348 157.559C291.74 157.976 291.11 158.402 290.477 158.823C290.412 158.866 290.336 158.888 290.258 158.885C290.18 158.882 290.105 158.855 290.043 158.807L290.043 158.807ZM293.756 156.256C293.711 156.221 293.674 156.175 293.649 156.122C293.624 156.07 293.611 156.012 293.613 155.954C293.614 155.896 293.629 155.839 293.656 155.788C293.683 155.737 293.722 155.692 293.769 155.659C294.384 155.222 294.997 154.779 295.59 154.343C295.67 154.284 295.769 154.26 295.867 154.275C295.964 154.289 296.052 154.342 296.111 154.422C296.169 154.501 296.194 154.601 296.179 154.699C296.164 154.796 296.111 154.884 296.031 154.942C295.435 155.381 294.819 155.827 294.2 156.266C294.135 156.312 294.057 156.336 293.977 156.334C293.897 156.333 293.82 156.305 293.757 156.256L293.756 156.256ZM297.385 153.585C297.34 153.55 297.303 153.505 297.278 153.454C297.253 153.403 297.24 153.346 297.241 153.289C297.241 153.232 297.254 153.176 297.279 153.125C297.305 153.074 297.341 153.03 297.387 152.995C297.987 152.536 298.582 152.071 299.156 151.613C299.233 151.553 299.331 151.525 299.429 151.536C299.526 151.548 299.615 151.597 299.677 151.674C299.738 151.751 299.766 151.848 299.756 151.946C299.745 152.044 299.697 152.133 299.62 152.195C299.043 152.656 298.443 153.124 297.839 153.586C297.774 153.636 297.694 153.663 297.612 153.663C297.529 153.663 297.45 153.635 297.385 153.585L297.385 153.585ZM300.906 150.774C300.862 150.74 300.826 150.696 300.801 150.647C300.776 150.597 300.763 150.542 300.762 150.487C300.761 150.431 300.772 150.376 300.795 150.325C300.819 150.275 300.853 150.23 300.895 150.194C301.476 149.71 302.05 149.219 302.6 148.736C302.637 148.703 302.68 148.678 302.726 148.662C302.773 148.646 302.822 148.639 302.871 148.642C302.92 148.645 302.968 148.658 303.012 148.679C303.056 148.701 303.095 148.731 303.128 148.768C303.16 148.805 303.185 148.848 303.201 148.895C303.216 148.941 303.223 148.99 303.219 149.039C303.216 149.088 303.203 149.136 303.181 149.18C303.159 149.224 303.128 149.263 303.091 149.295C302.536 149.782 301.958 150.277 301.373 150.766C301.308 150.82 301.226 150.851 301.141 150.852C301.056 150.854 300.973 150.826 300.906 150.774ZM304.291 147.801C304.248 147.768 304.213 147.726 304.189 147.678C304.164 147.63 304.15 147.578 304.147 147.524C304.145 147.47 304.154 147.416 304.175 147.366C304.195 147.316 304.227 147.271 304.266 147.234C304.822 146.719 305.368 146.198 305.887 145.687C305.922 145.652 305.963 145.624 306.009 145.605C306.054 145.586 306.103 145.577 306.152 145.577C306.201 145.577 306.25 145.587 306.296 145.606C306.341 145.625 306.382 145.653 306.417 145.688C306.451 145.723 306.478 145.764 306.497 145.81C306.515 145.856 306.524 145.905 306.524 145.954C306.523 146.003 306.512 146.052 306.493 146.097C306.473 146.142 306.445 146.183 306.41 146.217C305.885 146.734 305.334 147.26 304.772 147.78C304.707 147.84 304.624 147.875 304.536 147.879C304.448 147.883 304.361 147.856 304.291 147.802L304.291 147.801ZM307.499 144.639C307.489 144.631 307.48 144.623 307.47 144.615C307.435 144.581 307.407 144.541 307.387 144.496C307.367 144.451 307.356 144.403 307.355 144.354C307.353 144.305 307.362 144.257 307.379 144.211C307.397 144.166 307.423 144.124 307.457 144.088C307.978 143.539 308.486 142.983 308.966 142.436C309.032 142.362 309.124 142.317 309.222 142.31C309.321 142.304 309.418 142.337 309.492 142.402C309.566 142.467 309.611 142.559 309.618 142.658C309.624 142.756 309.591 142.853 309.526 142.927C309.039 143.481 308.525 144.044 307.997 144.601C307.933 144.668 307.847 144.709 307.755 144.716C307.663 144.723 307.572 144.695 307.499 144.639L307.499 144.639ZM310.468 141.252L310.463 141.249C310.425 141.218 310.394 141.18 310.37 141.137C310.347 141.094 310.332 141.047 310.326 140.999C310.321 140.95 310.326 140.901 310.339 140.854C310.353 140.807 310.376 140.763 310.406 140.725C310.571 140.521 310.733 140.315 310.889 140.115C311.189 139.729 311.484 139.338 311.764 138.951C311.792 138.911 311.829 138.877 311.87 138.851C311.912 138.825 311.959 138.807 312.007 138.799C312.056 138.791 312.105 138.793 312.153 138.804C312.201 138.816 312.246 138.836 312.286 138.865C312.326 138.894 312.36 138.931 312.385 138.973C312.411 139.015 312.428 139.061 312.435 139.11C312.443 139.159 312.441 139.208 312.429 139.256C312.417 139.304 312.396 139.349 312.366 139.388C312.081 139.781 311.782 140.179 311.477 140.571C311.319 140.775 311.154 140.984 310.987 141.192C310.925 141.268 310.837 141.317 310.74 141.328C310.643 141.339 310.546 141.312 310.469 141.252L310.468 141.252ZM313.107 137.606C313.034 137.549 312.985 137.467 312.969 137.375C312.953 137.283 312.972 137.189 313.023 137.111C313.432 136.475 313.816 135.832 314.165 135.201C314.189 135.158 314.22 135.119 314.259 135.088C314.297 135.057 314.341 135.034 314.388 135.02C314.435 135.006 314.485 135.002 314.534 135.007C314.583 135.013 314.63 135.028 314.674 135.052C314.717 135.075 314.755 135.108 314.785 135.146C314.816 135.185 314.838 135.229 314.852 135.277C314.865 135.324 314.869 135.374 314.863 135.423C314.857 135.472 314.841 135.519 314.816 135.562C314.459 136.207 314.067 136.863 313.649 137.514C313.623 137.555 313.588 137.59 313.548 137.618C313.508 137.646 313.463 137.666 313.415 137.676C313.367 137.686 313.318 137.687 313.27 137.679C313.222 137.67 313.176 137.652 313.135 137.626C313.126 137.619 313.116 137.613 313.107 137.606L313.107 137.606ZM315.279 133.669C315.213 133.617 315.166 133.545 315.146 133.463C315.126 133.382 315.134 133.296 315.169 133.22C315.483 132.536 315.766 131.845 316.009 131.168C316.024 131.121 316.049 131.077 316.082 131.04C316.115 131.003 316.155 130.972 316.199 130.951C316.244 130.929 316.292 130.917 316.342 130.914C316.391 130.911 316.441 130.918 316.487 130.935C316.534 130.952 316.577 130.978 316.613 131.011C316.65 131.045 316.679 131.085 316.7 131.13C316.721 131.175 316.732 131.224 316.734 131.273C316.735 131.323 316.727 131.372 316.709 131.419C316.459 132.116 316.169 132.827 315.846 133.53C315.822 133.581 315.788 133.626 315.744 133.662C315.701 133.698 315.65 133.723 315.596 133.736C315.541 133.75 315.484 133.751 315.429 133.739C315.375 133.727 315.323 133.703 315.279 133.669L315.279 133.669ZM316.787 129.436C316.73 129.392 316.687 129.332 316.663 129.264C316.64 129.196 316.637 129.122 316.654 129.052C316.834 128.338 316.975 127.614 317.076 126.885C317.091 126.788 317.144 126.702 317.222 126.644C317.3 126.586 317.398 126.561 317.495 126.574C317.591 126.587 317.679 126.638 317.738 126.715C317.798 126.792 317.825 126.89 317.813 126.986C317.709 127.743 317.563 128.493 317.376 129.233C317.361 129.293 317.331 129.349 317.289 129.394C317.248 129.44 317.195 129.474 317.136 129.495C317.078 129.515 317.015 129.52 316.954 129.51C316.893 129.5 316.836 129.475 316.787 129.437L316.787 129.436ZM317.392 124.988C317.346 124.953 317.309 124.907 317.284 124.855C317.259 124.803 317.247 124.745 317.248 124.687C317.261 123.953 317.228 123.218 317.151 122.487C317.14 122.389 317.169 122.291 317.231 122.214C317.293 122.137 317.383 122.088 317.482 122.078C317.58 122.067 317.678 122.096 317.755 122.158C317.832 122.22 317.881 122.31 317.891 122.409C317.972 123.17 318.006 123.935 317.992 124.701C317.991 124.77 317.97 124.837 317.933 124.896C317.896 124.954 317.843 125 317.78 125.03C317.718 125.06 317.649 125.072 317.58 125.064C317.511 125.057 317.446 125.031 317.391 124.988L317.392 124.988ZM316.915 120.525C316.848 120.472 316.801 120.399 316.781 120.316C316.613 119.6 316.402 118.894 316.15 118.203C316.116 118.11 316.12 118.008 316.162 117.918C316.204 117.829 316.279 117.76 316.372 117.726C316.465 117.692 316.567 117.696 316.657 117.738C316.746 117.78 316.815 117.855 316.849 117.948C317.111 118.667 317.331 119.401 317.506 120.146C317.524 120.221 317.518 120.299 317.489 120.371C317.46 120.442 317.41 120.503 317.345 120.544C317.28 120.586 317.204 120.606 317.127 120.602C317.05 120.599 316.976 120.572 316.915 120.524L316.915 120.525ZM284.819 94.6233C284.749 94.5691 284.701 94.4918 284.683 94.4053C284.664 94.3188 284.678 94.2287 284.72 94.1511C284.762 94.0735 284.831 94.0135 284.913 93.9819C284.996 93.9502 285.087 93.9489 285.17 93.9782C285.869 94.2233 286.585 94.4844 287.297 94.7543C287.343 94.7711 287.386 94.7969 287.422 94.8303C287.458 94.8637 287.488 94.904 287.508 94.9489C287.529 94.9937 287.54 95.0422 287.542 95.0915C287.544 95.1408 287.535 95.1899 287.518 95.2361C287.5 95.2822 287.474 95.3244 287.44 95.3602C287.406 95.396 287.365 95.4248 287.32 95.4447C287.275 95.4646 287.227 95.4754 287.177 95.4764C287.128 95.4773 287.079 95.4685 287.033 95.4503C286.326 95.1828 285.617 94.924 284.924 94.6808C284.886 94.6674 284.85 94.648 284.819 94.6233ZM289.035 96.2189C288.964 96.1638 288.915 96.0848 288.898 95.9965C288.881 95.9083 288.896 95.8168 288.941 95.739C288.986 95.6611 289.057 95.6021 289.142 95.573C289.227 95.5438 289.32 95.5464 289.403 95.5803C290.102 95.8636 290.804 96.1584 291.49 96.4561C291.58 96.4961 291.65 96.5698 291.685 96.6611C291.721 96.7525 291.719 96.8542 291.68 96.9442C291.641 97.0341 291.568 97.105 291.477 97.1415C291.386 97.178 291.284 97.1771 291.194 97.139C290.513 96.8435 289.816 96.5512 289.124 96.2701C289.092 96.2572 289.062 96.24 289.035 96.219L289.035 96.2189ZM315.383 116.301C315.339 116.267 315.303 116.223 315.279 116.173C314.959 115.526 314.595 114.876 314.198 114.24C314.146 114.156 314.13 114.056 314.152 113.96C314.175 113.864 314.234 113.781 314.317 113.729C314.401 113.677 314.501 113.66 314.597 113.682C314.693 113.704 314.776 113.763 314.829 113.846C315.239 114.502 315.615 115.174 315.946 115.842C315.983 115.918 315.994 116.004 315.976 116.086C315.958 116.169 315.912 116.242 315.847 116.296C315.782 116.349 315.701 116.378 315.616 116.379C315.532 116.38 315.45 116.353 315.383 116.301L315.383 116.301ZM293.17 98.0138C293.097 97.9576 293.048 97.8769 293.032 97.7869C293.015 97.697 293.033 97.6041 293.08 97.526C293.128 97.448 293.203 97.3902 293.29 97.3637C293.378 97.3372 293.472 97.3438 293.555 97.3824C294.243 97.7011 294.929 98.0302 295.596 98.3606C295.684 98.4044 295.752 98.4816 295.783 98.5751C295.815 98.6687 295.808 98.7709 295.764 98.8593C295.72 98.9478 295.643 99.0152 295.55 99.0468C295.456 99.0783 295.354 99.0714 295.265 99.0276C294.604 98.7002 293.924 98.3739 293.242 98.0578C293.216 98.0458 293.192 98.031 293.17 98.0136L293.17 98.0138ZM313.008 112.482C312.982 112.462 312.958 112.439 312.939 112.412C312.504 111.836 312.031 111.256 311.532 110.689C311.499 110.653 311.474 110.61 311.457 110.564C311.441 110.517 311.434 110.468 311.437 110.419C311.44 110.37 311.452 110.321 311.474 110.277C311.495 110.233 311.525 110.193 311.562 110.161C311.599 110.128 311.642 110.103 311.689 110.087C311.736 110.072 311.785 110.065 311.834 110.069C311.883 110.072 311.931 110.085 311.975 110.107C312.019 110.13 312.059 110.16 312.091 110.198C312.602 110.779 313.088 111.373 313.533 111.964C313.588 112.036 313.614 112.126 313.607 112.216C313.601 112.306 313.562 112.39 313.498 112.454C313.433 112.517 313.348 112.555 313.258 112.56C313.168 112.566 313.079 112.538 313.008 112.483L313.008 112.482ZM297.207 100.016C297.134 99.9585 297.084 99.8758 297.069 99.7839C297.053 99.6921 297.073 99.5977 297.123 99.5196C297.174 99.4414 297.252 99.385 297.342 99.3617C297.433 99.3383 297.528 99.3496 297.61 99.3933C298.283 99.7502 298.951 100.117 299.595 100.484C299.681 100.533 299.744 100.614 299.77 100.709C299.796 100.805 299.783 100.906 299.734 100.992C299.685 101.078 299.604 101.141 299.509 101.167C299.414 101.193 299.312 101.18 299.227 101.131C298.589 100.768 297.928 100.404 297.261 100.051C297.243 100.041 297.225 100.029 297.208 100.016L297.207 100.016ZM301.12 102.248C301.045 102.189 300.995 102.104 300.981 102.01C300.967 101.916 300.989 101.82 301.043 101.742C301.097 101.664 301.179 101.609 301.273 101.59C301.366 101.57 301.463 101.587 301.544 101.637C302.196 102.038 302.839 102.448 303.453 102.857C303.535 102.912 303.593 102.997 303.612 103.094C303.631 103.191 303.612 103.291 303.557 103.373C303.502 103.456 303.417 103.513 303.32 103.532C303.224 103.552 303.123 103.532 303.041 103.477C302.434 103.073 301.799 102.667 301.154 102.271C301.143 102.264 301.131 102.256 301.121 102.248L301.12 102.248ZM310.038 109.098C310.026 109.089 310.014 109.079 310.003 109.068C309.49 108.558 308.942 108.045 308.374 107.543C308.337 107.511 308.307 107.471 308.286 107.427C308.264 107.383 308.251 107.336 308.248 107.287C308.245 107.238 308.252 107.189 308.267 107.142C308.283 107.096 308.308 107.053 308.341 107.017C308.373 106.98 308.413 106.95 308.457 106.929C308.501 106.907 308.548 106.895 308.597 106.892C308.646 106.889 308.695 106.896 308.742 106.912C308.788 106.928 308.831 106.953 308.867 106.985C309.445 107.496 310.004 108.02 310.528 108.541C310.595 108.607 310.635 108.697 310.638 108.792C310.641 108.887 310.608 108.979 310.546 109.051C310.483 109.122 310.396 109.166 310.301 109.175C310.207 109.184 310.112 109.157 310.038 109.099L310.038 109.098ZM304.87 104.746C304.791 104.687 304.739 104.598 304.725 104.501C304.711 104.403 304.736 104.304 304.796 104.225C304.855 104.146 304.943 104.094 305.041 104.08C305.139 104.066 305.238 104.091 305.317 104.151C305.78 104.486 306.236 104.829 306.674 105.169C306.828 105.287 306.976 105.405 307.125 105.525C307.203 105.586 307.253 105.675 307.265 105.773C307.277 105.871 307.249 105.97 307.188 106.047C307.127 106.125 307.037 106.175 306.939 106.187C306.841 106.198 306.743 106.171 306.665 106.11L306.662 106.107C306.515 105.99 306.367 105.874 306.219 105.759L306.217 105.757C305.786 105.422 305.336 105.084 304.88 104.753C304.877 104.751 304.873 104.748 304.87 104.746L304.87 104.746Z" fill="#13C7A7"/>
<path d="M203.457 123.219C203.39 123.167 203.342 123.093 203.323 123.01C203.303 122.926 203.313 122.839 203.351 122.762C203.388 122.685 203.451 122.624 203.529 122.588C203.606 122.552 203.694 122.544 203.777 122.565C204.142 122.657 204.509 122.757 204.868 122.862C204.914 122.875 204.958 122.898 204.996 122.929C205.034 122.959 205.066 122.997 205.09 123.04C205.113 123.083 205.128 123.13 205.133 123.179C205.138 123.227 205.134 123.276 205.12 123.323C205.107 123.37 205.084 123.414 205.053 123.452C205.023 123.49 204.985 123.522 204.942 123.545C204.899 123.569 204.852 123.584 204.803 123.589C204.755 123.594 204.706 123.59 204.659 123.576C204.309 123.474 203.951 123.376 203.594 123.286C203.545 123.274 203.498 123.251 203.457 123.219Z" fill="#13C7A7"/>
<path d="M199.821 120.87C200.356 121.105 201.131 120.519 201.551 119.56C201.972 118.602 201.879 117.635 201.344 117.4C200.809 117.165 200.034 117.751 199.613 118.71C199.193 119.668 199.285 120.635 199.821 120.87Z" fill="#1AA189"/>
<path d="M198.205 126.451C198.764 126.622 199.465 125.949 199.771 124.948C200.077 123.947 199.872 122.997 199.313 122.826C198.754 122.656 198.053 123.329 197.747 124.329C197.441 125.33 197.646 126.28 198.205 126.451Z" fill="#1AA189"/>
<path d="M198.927 122.431C199.268 122.696 199.76 122.635 200.025 122.293C200.29 121.952 200.228 121.46 199.887 121.195C199.546 120.93 199.054 120.991 198.789 121.333C198.524 121.674 198.585 122.166 198.927 122.431Z" fill="#13C7A7"/>
<path d="M155.464 246.248L157.101 254.397L164.869 293.141L151.843 295.751L142.869 250.996L142.441 248.864L155.464 246.248Z" fill="#13C7A7"/>
<path d="M178.012 216.118L182.842 240.195C182.856 240.266 182.856 240.338 182.842 240.409C182.828 240.48 182.801 240.547 182.761 240.607C182.721 240.667 182.67 240.718 182.61 240.758C182.55 240.798 182.483 240.826 182.412 240.84L119.317 253.498L111.329 213.68L159.241 204.069C167.925 202.326 176.328 207.72 178.012 216.118Z" fill="#1AA189"/>
<path d="M130.97 226.304L135.763 250.195L102.644 256.839L97.851 232.949C96.0864 224.152 102.07 215.534 111.216 213.7C120.361 211.865 129.206 217.508 130.97 226.304Z" fill="#E3E3E3"/>
<path d="M149.49 230.926C147.05 231.415 144.664 229.811 144.17 227.348C143.676 224.884 145.258 222.484 147.699 221.995C148.477 221.84 149.283 221.893 150.034 222.151C150.784 222.408 151.454 222.86 151.973 223.459L182.802 217.275L183.698 221.74L152.869 227.925C152.621 228.679 152.178 229.354 151.584 229.881C150.991 230.408 150.268 230.768 149.49 230.926Z" fill="#13C7A7"/>
<path d="M130.114 227.123L134.783 250.4L103.584 256.659L98.9143 233.382C97.1951 224.812 102.786 216.463 111.401 214.735C120.017 213.007 128.394 218.553 130.114 227.123Z" fill="#13C7A7"/>
<path d="M149.461 228.499C150.628 228.03 151.193 226.704 150.724 225.537C150.255 224.37 148.928 223.804 147.761 224.274C146.594 224.743 146.029 226.069 146.498 227.236C146.968 228.403 148.294 228.968 149.461 228.499Z" fill="white"/>
<path d="M183.129 217.127L186.058 231.728C186.07 231.79 186.057 231.856 186.022 231.909C185.986 231.963 185.931 232 185.868 232.012L178.71 233.448C178.697 233.451 178.684 233.448 178.674 233.441C178.663 233.434 178.656 233.423 178.653 233.411L175.686 218.62C175.684 218.607 175.686 218.594 175.693 218.584C175.7 218.573 175.711 218.566 175.724 218.563L183.072 217.089C183.085 217.087 183.098 217.089 183.108 217.096C183.119 217.103 183.126 217.114 183.129 217.127Z" fill="#13C7A7"/>
<path d="M110.063 245.026C111.173 246.976 114.423 248.518 114.423 248.518C111.072 250.15 108.42 248.95 107.139 248.088C106.261 248.775 105.312 249.367 104.309 249.854C97.4301 253.204 89.475 251.032 86.5373 245C83.5996 238.967 86.796 231.365 93.6754 228.015C100.555 224.666 108.509 226.837 111.447 232.87C113.358 236.794 112.671 241.384 110.063 245.026Z" fill="white"/>
<path d="M135.799 250.196C135.804 251.137 139.665 277.675 119.265 281.767C97.0392 286.613 102.561 256.864 102.561 256.864L135.799 250.196Z" fill="#1AA189"/>
<path d="M99.8467 241.066C100.819 240.675 101.29 239.57 100.899 238.597C100.508 237.625 99.4029 237.154 98.4306 237.545C97.4582 237.936 96.9869 239.041 97.378 240.014C97.769 240.986 98.8743 241.457 99.8467 241.066Z" fill="#E3E3E3"/>
<path d="M91.6569 243.468C92.6351 243.074 93.1092 241.962 92.7158 240.984C92.3224 240.006 91.2104 239.532 90.2322 239.925C89.254 240.319 88.7799 241.431 89.1733 242.409C89.5667 243.387 90.6786 243.861 91.6569 243.468Z" fill="#E3E3E3"/>
<path d="M107.957 238.676C108.935 238.283 109.409 237.171 109.016 236.193C108.622 235.214 107.51 234.74 106.532 235.134C105.554 235.527 105.08 236.639 105.473 237.617C105.866 238.595 106.978 239.07 107.957 238.676Z" fill="#E3E3E3"/>
<path d="M155.466 246.247L157.103 254.396L142.871 250.995L142.443 248.863L155.466 246.247Z" fill="#13C7A7"/>
</svg>
