<svg width="21" height="20" viewBox="0 0 21 20" fill="none" xmlns="http://www.w3.org/2000/svg">
<path d="M10.5 1.04199C15.4476 1.04199 19.458 5.05245 19.458 10C19.458 14.9476 15.4476 18.958 10.5 18.958C5.55245 18.958 1.54199 14.9476 1.54199 10C1.54199 5.05245 5.55245 1.04199 10.5 1.04199ZM10.5 2.29199C6.24281 2.29199 2.79199 5.74281 2.79199 10C2.79199 14.2572 6.24281 17.708 10.5 17.708C14.7572 17.708 18.208 14.2572 18.208 10C18.208 5.74281 14.7572 2.29199 10.5 2.29199ZM10.5 12.5C10.9601 12.5 11.3328 12.8729 11.333 13.333C11.333 13.7932 10.9602 14.167 10.5 14.167C10.0398 14.167 9.66699 13.7932 9.66699 13.333C9.66717 12.8729 10.0399 12.5 10.5 12.5ZM10.5 5.20801C11.708 5.20801 12.6873 6.18753 12.6875 7.39551C12.6875 8.19829 12.2543 8.89947 11.6123 9.2793C11.4487 9.37614 11.3137 9.4822 11.2256 9.58594C11.14 9.68682 11.125 9.75333 11.125 9.79199V10.833C11.125 11.1782 10.8452 11.458 10.5 11.458C10.1548 11.458 9.875 11.1782 9.875 10.833V9.79199C9.875 9.37042 10.0599 9.02786 10.2725 8.77734C10.4825 8.52997 10.7445 8.3414 10.9766 8.2041C11.254 8.03993 11.4375 7.73845 11.4375 7.39551C11.4373 6.87789 11.0177 6.45801 10.5 6.45801C9.98234 6.45801 9.56268 6.87789 9.5625 7.39551C9.5625 7.74069 9.28268 8.02051 8.9375 8.02051C8.59232 8.02051 8.3125 7.74069 8.3125 7.39551C8.31268 6.18753 9.29199 5.20801 10.5 5.20801Z" fill="#357CEA"/>
</svg>
