<svg width="22" height="22" viewBox="0 0 22 22" fill="none" xmlns="http://www.w3.org/2000/svg">
<path d="M8.44669 14.3975C8.11392 14.1508 7.64421 14.2207 7.39755 14.5534C7.1509 14.8862 7.2207 15.3559 7.55347 15.6026C8.52588 16.3233 9.71511 16.75 11.0001 16.75C12.2851 16.75 13.4743 16.3233 14.4467 15.6026C14.7795 15.3559 14.8493 14.8862 14.6026 14.5534C14.3559 14.2207 13.8862 14.1508 13.5535 14.3975C12.8251 14.9374 11.946 15.25 11.0001 15.25C10.0542 15.25 9.17503 14.9374 8.44669 14.3975Z" fill="#344054"/>
<path fill-rule="evenodd" clip-rule="evenodd" d="M11 0.250244C10.2749 0.250244 9.61341 0.449357 8.88928 0.787348C8.18832 1.11453 7.37772 1.5974 6.36183 2.20257L4.90622 3.06967C3.78711 3.73631 2.89535 4.26751 2.22015 4.77549C1.52314 5.29987 0.999988 5.83985 0.659071 6.55096C0.317986 7.26243 0.225541 8.00704 0.255194 8.87609C0.283896 9.71727 0.431051 10.7399 0.615564 12.0221L0.907918 14.0539C1.14531 15.7038 1.33368 17.0131 1.61512 18.0324C1.90523 19.0832 2.31686 19.9172 3.05965 20.5568C3.80184 21.1958 4.68984 21.4817 5.77634 21.6179C6.83154 21.7503 8.16281 21.7503 9.8423 21.7502H12.1577C13.8372 21.7503 15.1685 21.7503 16.2237 21.6179C17.3102 21.4817 18.1982 21.1958 18.9404 20.5568C19.6831 19.9172 20.0948 19.0832 20.3849 18.0324C20.6663 17.0131 20.8547 15.7038 21.0921 14.054L21.3844 12.0221C21.569 10.7399 21.7161 9.71726 21.7448 8.87609C21.7745 8.00704 21.682 7.26243 21.3409 6.55096C21 5.83985 20.4769 5.29987 19.7799 4.77549C19.1047 4.26751 18.2129 3.73631 17.0938 3.06967L15.6382 2.20257C14.6223 1.5974 13.8117 1.11453 13.1107 0.787347C12.3866 0.449357 11.7251 0.250244 11 0.250244ZM7.09558 3.51146C8.15309 2.88151 8.89923 2.43805 9.52371 2.14658C10.1328 1.86228 10.5708 1.75024 11 1.75024C11.4293 1.75024 11.8672 1.86228 12.4763 2.14658C13.1008 2.43805 13.8469 2.8815 14.9044 3.51145L16.2893 4.33639C17.4536 5.02997 18.2752 5.52058 18.8781 5.97415C19.4665 6.41686 19.7888 6.78319 19.9883 7.19941C20.1877 7.61529 20.2706 8.09361 20.2457 8.82493C20.2201 9.57478 20.0856 10.5166 19.8936 11.8513L19.6148 13.7887C19.3683 15.5018 19.1921 16.7165 18.939 17.6332C18.6916 18.5291 18.3939 19.0479 17.9616 19.4201C17.5287 19.7928 16.9676 20.0129 16.037 20.1296C15.086 20.2489 13.8488 20.2502 12.1061 20.2502H9.89393C8.15124 20.2502 6.91405 20.2489 5.963 20.1296C5.03246 20.0129 4.47129 19.7928 4.03841 19.4201C3.60614 19.0479 3.30838 18.5291 3.06102 17.6332C2.80791 16.7165 2.6317 15.5018 2.3852 13.7886L2.10643 11.8513C1.91437 10.5165 1.77991 9.57478 1.75432 8.82493C1.72937 8.09361 1.81229 7.61529 2.01167 7.19941C2.21121 6.78319 2.53347 6.41686 3.12194 5.97415C3.72482 5.52058 4.54643 5.02997 5.71074 4.33639L7.09558 3.51146Z" fill="#344054"/>
</svg>
