<svg width="28" height="29" viewBox="0 0 28 29" fill="none" xmlns="http://www.w3.org/2000/svg">
<path d="M2.75776 15.6177C2.31507 12.5411 2.09373 11.0028 2.72427 9.6876C3.35481 8.37236 4.69689 7.57289 7.38107 5.97394L8.99672 5.01151C11.4342 3.5595 12.653 2.8335 13.9997 2.8335C15.3464 2.8335 16.5651 3.5595 19.0026 5.01151L20.6183 5.97394C23.3025 7.57289 24.6445 8.37236 25.2751 9.6876C25.9056 11.0028 25.6843 12.5411 25.2416 15.6177L24.9164 17.8779C24.3477 21.8299 24.0634 23.8059 22.6925 24.9864C21.3216 26.1668 19.3111 26.1668 15.2901 26.1668H12.7093C8.68827 26.1668 6.67778 26.1668 5.30687 24.9864C3.93596 23.8059 3.65164 21.8299 3.08299 17.8779L2.75776 15.6177Z" stroke="#1AA189" stroke-width="1.5"/>
<path d="M17.5 21.5H10.5" stroke="#1AA189" stroke-width="1.5" stroke-linecap="round"/>
</svg>
