<svg width="18" height="18" viewBox="0 0 18 18" fill="none" xmlns="http://www.w3.org/2000/svg">
<path fill-rule="evenodd" clip-rule="evenodd" d="M8.95221 0.0415041H9.04784C10.9715 0.0414934 12.479 0.0414849 13.6553 0.199626C14.8592 0.361493 15.8092 0.699276 16.5549 1.44495C17.3006 2.19063 17.6384 3.14065 17.8002 4.34459C17.9584 5.52083 17.9584 7.02836 17.9584 8.95203V9.04765C17.9584 10.9713 17.9584 12.4788 17.8002 13.6551C17.6384 14.859 17.3006 15.809 16.5549 16.5547C15.8092 17.3004 14.8592 17.6382 13.6553 17.8C12.479 17.9582 10.9715 17.9582 9.04783 17.9582H8.95221C7.02855 17.9582 5.52102 17.9582 4.34478 17.8C3.14083 17.6382 2.19081 17.3004 1.44513 16.5547C0.699459 15.809 0.361676 14.859 0.199809 13.6551C0.041668 12.4788 0.0416765 10.9713 0.0416872 9.04765V8.95202C0.0416765 7.02836 0.041668 5.52083 0.199809 4.34459C0.361676 3.14065 0.699459 2.19063 1.44513 1.44495C2.19081 0.699276 3.14083 0.361493 4.34478 0.199626C5.52101 0.0414849 7.02854 0.0414934 8.95221 0.0415041ZM4.51133 1.43848C3.446 1.58171 2.80373 1.85412 2.32902 2.32883C1.8543 2.80355 1.58189 3.44582 1.43866 4.51115C1.29301 5.59447 1.29169 7.01798 1.29169 8.99984C1.29169 10.9817 1.29301 12.4052 1.43866 13.4885C1.58189 14.5539 1.8543 15.1961 2.32902 15.6708C2.80373 16.1456 3.446 16.418 4.51133 16.5612C5.59465 16.7068 7.01817 16.7082 9.00002 16.7082C10.9819 16.7082 12.4054 16.7068 13.4887 16.5612C14.554 16.418 15.1963 16.1456 15.671 15.6708C16.1457 15.1961 16.4181 14.5539 16.5614 13.4885C16.707 12.4052 16.7084 10.9817 16.7084 8.99984C16.7084 7.01798 16.707 5.59447 16.5614 4.51115C16.4181 3.44582 16.1457 2.80355 15.671 2.32883C15.1963 1.85412 14.554 1.58171 13.4887 1.43848C12.4054 1.29283 10.9819 1.2915 9.00002 1.2915C7.01817 1.2915 5.59465 1.29283 4.51133 1.43848ZM4.00002 4.20817C4.3452 4.20817 4.62502 4.48799 4.62502 4.83317L4.62502 13.1665C4.62502 13.5117 4.3452 13.7915 4.00002 13.7915C3.65484 13.7915 3.37502 13.5117 3.37502 13.1665L3.37502 4.83317C3.37502 4.48799 3.65484 4.20817 4.00002 4.20817ZM6.89141 5.22456C7.13549 4.98048 7.53122 4.98048 7.77529 5.22456L8.94332 6.39259C9.43734 6.06539 10.0298 5.87484 10.6667 5.87484C11.3036 5.87484 11.896 6.06539 12.3901 6.39259L13.5581 5.22456C13.8022 4.98048 14.1979 4.98048 14.442 5.22456C14.686 5.46864 14.686 5.86437 14.442 6.10845L13.2739 7.27647C13.6011 7.77049 13.7917 8.36291 13.7917 8.99984C13.7917 9.63676 13.6011 10.2292 13.2739 10.7232L14.442 11.8912C14.686 12.1353 14.686 12.531 14.442 12.7751C14.1979 13.0192 13.8022 13.0192 13.5581 12.7751L12.3901 11.6071C11.896 11.9343 11.3036 12.1248 10.6667 12.1248C10.0298 12.1248 9.43734 11.9343 8.94332 11.6071L7.77529 12.7751C7.53122 13.0192 7.13549 13.0192 6.89141 12.7751C6.64733 12.531 6.64733 12.1353 6.89141 11.8912L8.05943 10.7232C7.73223 10.2292 7.54169 9.63676 7.54169 8.99984C7.54169 8.36291 7.73223 7.77049 8.05943 7.27647L6.89141 6.10845C6.64733 5.86437 6.64733 5.46864 6.89141 5.22456ZM10.6667 7.12484C9.63115 7.12484 8.79169 7.9643 8.79169 8.99984C8.79169 10.0354 9.63115 10.8748 10.6667 10.8748C11.7022 10.8748 12.5417 10.0354 12.5417 8.99984C12.5417 7.9643 11.7022 7.12484 10.6667 7.12484Z" fill="#344054"/>
</svg>
