<svg width="40" height="40" viewBox="0 0 40 40" fill="none" xmlns="http://www.w3.org/2000/svg">
<path d="M4.00049 4C4.00049 1.79086 5.79135 0 8.00049 0H24.0005L36.0005 12V36C36.0005 38.2091 34.2096 40 32.0005 40H8.00049C5.79135 40 4.00049 38.2091 4.00049 36V4Z" fill="#9747FF"/>
<path opacity="0.3" d="M24.0005 0L36.0005 12H28.0005C25.7913 12 24.0005 10.2091 24.0005 8V0Z" fill="white"/>
<path d="M12.3822 26.2727H14.2061V32.358C14.2061 32.9205 14.0797 33.4091 13.8268 33.8239C13.5768 34.2386 13.2288 34.5582 12.7828 34.7827C12.3368 35.0071 11.8183 35.1193 11.2274 35.1193C10.7018 35.1193 10.2246 35.027 9.79559 34.8423C9.36945 34.6548 9.03138 34.3707 8.78138 33.9901C8.53138 33.6065 8.4078 33.125 8.41064 32.5455H10.2473C10.253 32.7756 10.2998 32.973 10.3879 33.1378C10.4788 33.2997 10.6024 33.4247 10.7587 33.5128C10.9177 33.598 11.1052 33.6406 11.3212 33.6406C11.5484 33.6406 11.7402 33.5923 11.8964 33.4957C12.0555 33.3963 12.1763 33.2514 12.2587 33.0611C12.341 32.8707 12.3822 32.6364 12.3822 32.358V26.2727ZM15.7317 35V26.2727H19.1748C19.8368 26.2727 20.4007 26.3991 20.8666 26.652C21.3325 26.902 21.6876 27.25 21.932 27.696C22.1791 28.1392 22.3027 28.6506 22.3027 29.2301C22.3027 29.8097 22.1777 30.321 21.9277 30.7642C21.6777 31.2074 21.3155 31.5526 20.841 31.7997C20.3695 32.0469 19.7984 32.1705 19.128 32.1705H16.9334V30.6918H18.8297C19.1848 30.6918 19.4774 30.6307 19.7075 30.5085C19.9405 30.3835 20.1138 30.2116 20.2274 29.9929C20.3439 29.7713 20.4021 29.517 20.4021 29.2301C20.4021 28.9403 20.3439 28.6875 20.2274 28.4716C20.1138 28.2528 19.9405 28.0838 19.7075 27.9645C19.4746 27.8423 19.1791 27.7812 18.8212 27.7812H17.5768V35H15.7317ZM29.2881 29.0938C29.2285 28.8864 29.1447 28.7031 29.0367 28.544C28.9288 28.3821 28.7967 28.2457 28.6404 28.1349C28.487 28.0213 28.3109 27.9347 28.112 27.875C27.916 27.8153 27.6986 27.7855 27.46 27.7855C27.014 27.7855 26.6219 27.8963 26.2839 28.1179C25.9486 28.3395 25.6873 28.6619 25.4998 29.0852C25.3123 29.5057 25.2185 30.0199 25.2185 30.6278C25.2185 31.2358 25.3109 31.7528 25.4955 32.179C25.6802 32.6051 25.9415 32.9304 26.2796 33.1548C26.6177 33.3764 27.0168 33.4872 27.4771 33.4872C27.8947 33.4872 28.2512 33.4134 28.5467 33.2656C28.8449 33.1151 29.0722 32.9034 29.2285 32.6307C29.3876 32.358 29.4671 32.0355 29.4671 31.6634L29.8421 31.7188H27.5921V30.3295H31.2441V31.429C31.2441 32.196 31.0822 32.8551 30.7583 33.4062C30.4344 33.9545 29.9884 34.3778 29.4202 34.6761C28.8521 34.9716 28.2015 35.1193 27.4685 35.1193C26.6503 35.1193 25.9316 34.9389 25.3123 34.5781C24.693 34.2145 24.21 33.6989 23.8634 33.0312C23.5197 32.3608 23.3478 31.5653 23.3478 30.6449C23.3478 29.9375 23.4501 29.3068 23.6546 28.7528C23.862 28.196 24.1518 27.7244 24.5239 27.3381C24.8961 26.9517 25.3293 26.6577 25.8236 26.456C26.318 26.2543 26.8535 26.1534 27.4302 26.1534C27.9245 26.1534 28.3847 26.2259 28.8109 26.3707C29.237 26.5128 29.6148 26.7145 29.9444 26.9759C30.2768 27.2372 30.5481 27.5483 30.7583 27.9091C30.9685 28.267 31.1035 28.6619 31.1631 29.0938H29.2881Z" fill="white"/>
</svg>
