<svg width="20" height="20" viewBox="0 0 20 20" fill="none" xmlns="http://www.w3.org/2000/svg">
<path fill-rule="evenodd" clip-rule="evenodd" d="M8.28616 2.70825H11.7135C13.245 2.70824 14.458 2.70823 15.4074 2.83586C16.3844 2.96722 17.1752 3.24399 17.7988 3.86762C18.4224 4.49126 18.6992 5.28205 18.8306 6.25907C18.9582 7.20841 18.9582 8.42144 18.9582 9.95291V10.0469C18.9582 11.5784 18.9582 12.7914 18.8306 13.7408C18.6992 14.7178 18.4224 15.5086 17.7988 16.1322C17.1752 16.7559 16.3844 17.0326 15.4074 17.164C14.458 17.2916 13.245 17.2916 11.7135 17.2916H8.28616C6.75469 17.2916 5.54166 17.2916 4.59232 17.164C3.6153 17.0326 2.82451 16.7559 2.20087 16.1322C1.57724 15.5086 1.30047 14.7178 1.16912 13.7408C1.04148 12.7914 1.04149 11.5784 1.0415 10.0469V9.9529C1.04149 8.42144 1.04148 7.20841 1.16912 6.25907C1.30047 5.28205 1.57724 4.49126 2.20087 3.86762C2.82451 3.24399 3.6153 2.96722 4.59232 2.83586C5.54166 2.70823 6.75469 2.70824 8.28616 2.70825ZM4.75888 4.07472C3.92047 4.18744 3.43743 4.39883 3.08476 4.7515C2.73208 5.10418 2.52069 5.58722 2.40797 6.42563C2.29283 7.28201 2.2915 8.4109 2.2915 9.99992C2.2915 11.5889 2.29283 12.7178 2.40797 13.5742C2.52069 14.4126 2.73208 14.8957 3.08476 15.2483C3.43743 15.601 3.92047 15.8124 4.75888 15.9251C5.61526 16.0403 6.74415 16.0416 8.33317 16.0416H11.6665C13.2555 16.0416 14.3844 16.0403 15.2408 15.9251C16.0792 15.8124 16.5622 15.601 16.9149 15.2483C17.2676 14.8957 17.479 14.4126 17.5917 13.5742C17.7068 12.7178 17.7082 11.5889 17.7082 9.99992C17.7082 8.4109 17.7068 7.28201 17.5917 6.42563C17.479 5.58722 17.2676 5.10418 16.9149 4.7515C16.5622 4.39883 16.0792 4.18744 15.2408 4.07472C14.3844 3.95958 13.2555 3.95825 11.6665 3.95825H8.33317C6.74415 3.95825 5.61527 3.95958 4.75888 4.07472ZM4.5197 6.26647C4.74068 6.0013 5.13478 5.96547 5.39995 6.18645L7.19903 7.68568C7.9765 8.33357 8.51628 8.78193 8.97199 9.07503C9.41312 9.35874 9.71228 9.45398 9.99984 9.45398C10.2874 9.45398 10.5866 9.35874 11.0277 9.07503C11.4834 8.78193 12.0232 8.33357 12.8006 7.68568L14.5997 6.18645C14.8649 5.96547 15.259 6.0013 15.48 6.26647C15.701 6.53164 15.6651 6.92575 15.4 7.14672L13.5695 8.67206C12.8309 9.28761 12.2322 9.78652 11.7039 10.1264C11.1534 10.4804 10.6174 10.704 9.99984 10.704C9.38227 10.704 8.84623 10.4804 8.29582 10.1264C7.76744 9.78652 7.16877 9.28761 6.43014 8.67207L4.59972 7.14672C4.33455 6.92575 4.29872 6.53164 4.5197 6.26647Z" fill="#357CEA"/>
</svg>
