<svg width="24" height="24" viewBox="0 0 24 24" fill="none" xmlns="http://www.w3.org/2000/svg">
<path d="M3.02484 12.1856L3.76387 12.0578L3.02484 12.1856ZM3.73038 16.2653L4.46941 16.1375L3.73038 16.2653ZM17.0622 20.4774L17.8094 20.542L17.0622 20.4774ZM17.8744 11.0848L17.1272 11.0202L17.1272 11.0202L17.8744 11.0848ZM10.005 5.22179L9.26492 5.34305L9.26492 5.34305L10.005 5.22179ZM10.6677 9.26635L9.92759 9.38761L10.6677 9.26635ZM17.3019 9.67785L17.7915 9.1097L17.7915 9.1097L17.3019 9.67785ZM15.8631 8.43806L15.3735 9.00621L15.3735 9.00621L15.8631 8.43806ZM13.4819 4.78411L14.2079 4.59579L14.2079 4.59579L13.4819 4.78411ZM13.0062 2.95025L12.2803 3.13857L12.2803 3.13857L13.0062 2.95025ZM11.3324 2.06472L11.5618 2.77878L11.5618 2.77878L11.3324 2.06472ZM11.1874 2.11129L10.958 1.39723L10.958 1.39723L11.1874 2.11129ZM14.1381 6.46298L13.4765 6.81635L14.1381 6.46298ZM10.0953 3.24789L10.8213 3.43621L10.8213 3.43621L10.0953 3.24789ZM12.3258 2.13276L12.6514 1.45711L12.6514 1.45711L12.3258 2.13276ZM20.0284 21.4711L20.7756 21.5357L20.0284 21.4711ZM21 10.2346L20.2528 10.17C20.2874 9.76981 20.6311 9.46795 21.0323 9.48526C21.4336 9.50258 21.75 9.83293 21.75 10.2346L21 10.2346ZM3.76387 12.0578L4.46941 16.1375L2.99135 16.3931L2.28581 12.3134L3.76387 12.0578ZM10.755 21.2504L15.4037 21.2504L15.4037 22.7504L10.755 22.7504L10.755 21.2504ZM16.315 20.4128L17.1272 11.0202L18.6216 11.1494L17.8094 20.542L16.315 20.4128ZM4.46941 16.1375C4.97621 19.0681 7.61872 21.2504 10.755 21.2504L10.755 22.7504C6.92876 22.7504 3.62918 20.0814 2.99135 16.3931L4.46941 16.1375ZM10.7452 5.10052L11.4079 9.14508L9.92759 9.38761L9.26492 5.34305L10.7452 5.10052ZM16.8123 10.246L15.3735 9.00621L16.3527 7.8699L17.7915 9.1097L16.8123 10.246ZM12.756 4.97243L12.2803 3.13857L13.7322 2.76193L14.2079 4.59579L12.756 4.97243ZM11.5618 2.77878L11.4168 2.82535L10.958 1.39723L11.103 1.35066L11.5618 2.77878ZM13.4765 6.81635C13.1646 6.23234 12.9223 5.61376 12.756 4.97243L14.2079 4.59579C14.3443 5.12144 14.543 5.62929 14.7996 6.10961L13.4765 6.81635ZM11.4168 2.82535C11.1104 2.92379 10.8928 3.16045 10.8213 3.43621L9.36935 3.05957C9.5748 2.26756 10.181 1.64684 10.958 1.39723L11.4168 2.82535ZM12.2803 3.13857C12.2452 3.00357 12.1477 2.87949 12.0002 2.80841L12.6514 1.45711C13.1834 1.71346 13.583 2.18663 13.7322 2.76194L12.2803 3.13857ZM12.0002 2.80841C11.8655 2.74348 11.7069 2.73218 11.5618 2.77878L11.103 1.35066C11.6127 1.18691 12.1688 1.22456 12.6514 1.45711L12.0002 2.80841ZM9.84631 10.9846L4.66522 10.9846L4.66522 9.48457L9.84631 9.48457L9.84631 10.9846ZM19.2812 21.4065L20.2528 10.17L21.7472 10.2992L20.7756 21.5357L19.2812 21.4065ZM20.25 21.5131L20.25 10.2346L21.75 10.2346L21.75 21.5131L20.25 21.5131ZM20.7756 21.5357C20.7888 21.3831 20.6685 21.2504 20.5133 21.2504L20.5133 22.7504C19.7873 22.7504 19.2188 22.1283 19.2812 21.4065L20.7756 21.5357ZM9.26492 5.34305C9.14038 4.58293 9.17595 3.80513 9.36935 3.05957L10.8213 3.43621C10.6803 3.9796 10.6544 4.5465 10.7452 5.10052L9.26492 5.34305ZM15.4037 21.2504C15.8776 21.2504 16.274 20.8873 16.315 20.4128L17.8094 20.542C17.7015 21.7906 16.6573 22.7504 15.4037 22.7504L15.4037 21.2504ZM15.3735 9.00621C14.6937 8.42037 13.9608 7.72304 13.4765 6.81635L14.7996 6.10961C15.146 6.75804 15.6975 7.30529 16.3527 7.8699L15.3735 9.00621ZM2.28581 12.3134C2.03047 10.8369 3.16593 9.48457 4.66522 9.48457L4.66522 10.9846C4.09857 10.9846 3.66677 11.4963 3.76387 12.0578L2.28581 12.3134ZM20.5133 21.2504C20.3671 21.2504 20.25 21.3688 20.25 21.5131L21.75 21.5131C21.75 22.1956 21.1971 22.7504 20.5133 22.7504L20.5133 21.2504ZM11.4079 9.14508C11.5656 10.1079 10.8234 10.9846 9.84631 10.9846L9.84631 9.48457C9.89619 9.48457 9.93607 9.43937 9.92759 9.38761L11.4079 9.14508ZM17.1272 11.0202C17.1526 10.7262 17.0353 10.4382 16.8123 10.246L17.7915 9.1097C18.3798 9.61667 18.6885 10.3757 18.6216 11.1494L17.1272 11.0202Z" fill="#344054"/>
</svg>
