<svg width="20" height="20" viewBox="0 0 20 20" fill="none" xmlns="http://www.w3.org/2000/svg">
<path fill-rule="evenodd" clip-rule="evenodd" d="M9.94792 1.0415H10.0521C11.7757 1.04149 13.1398 1.04148 14.2071 1.20091C15.3104 1.36573 16.1853 1.71218 16.8662 2.46879C17.5387 3.21597 17.8389 4.16002 17.9832 5.35279C18.125 6.52495 18.125 8.02899 18.125 9.95635V10.0433C18.125 11.9707 18.125 13.4747 17.9832 14.6469C17.8389 15.8397 17.5387 16.7837 16.8662 17.5309C16.1853 18.2875 15.3104 18.6339 14.2071 18.7988C13.1398 18.9582 11.7757 18.9582 10.0521 18.9582H9.9479C8.22434 18.9582 6.86017 18.9582 5.79289 18.7988C4.68956 18.6339 3.81474 18.2875 3.13379 17.5309C2.46133 16.7837 2.16115 15.8397 2.01682 14.6469C1.87499 13.4747 1.87499 11.9707 1.875 10.0433V9.95636C1.87499 8.029 1.87499 6.52496 2.01682 5.35279C2.16115 4.16002 2.46133 3.21597 3.13379 2.46879C3.81474 1.71218 4.68956 1.36573 5.79289 1.20091C6.86018 1.04148 8.22435 1.04149 9.94792 1.0415ZM5.97757 2.43719C5.03855 2.57747 4.48031 2.84122 4.06291 3.305C3.63702 3.7782 3.38803 4.42644 3.25777 5.50295C3.12608 6.59127 3.125 8.01971 3.125 9.99984C3.125 11.98 3.12608 13.4084 3.25777 14.4967C3.38803 15.5732 3.63702 16.2215 4.06291 16.6947C4.48031 17.1585 5.03855 17.4222 5.97757 17.5625C6.94191 17.7065 8.21266 17.7082 10 17.7082C11.7873 17.7082 13.0581 17.7065 14.0224 17.5625C14.9615 17.4222 15.5197 17.1585 15.9371 16.6947C16.363 16.2215 16.612 15.5732 16.7422 14.4967C16.8739 13.4084 16.875 11.98 16.875 9.99984C16.875 8.01971 16.8739 6.59127 16.7422 5.50295C16.612 4.42644 16.363 3.7782 15.9371 3.305C15.5197 2.84122 14.9615 2.57747 14.0224 2.43719C13.0581 2.29314 11.7873 2.2915 10 2.2915C8.21266 2.2915 6.94191 2.29314 5.97757 2.43719ZM7.4301 4.37479C7.45317 4.37481 7.47647 4.37484 7.5 4.37484H12.5C12.5235 4.37484 12.5468 4.37481 12.5699 4.37479C12.8872 4.37445 13.161 4.37416 13.402 4.43873C14.049 4.6121 14.5544 5.1175 14.7278 5.76455C14.7923 6.00551 14.7921 6.27928 14.7917 6.5966C14.7917 6.61967 14.7917 6.64297 14.7917 6.6665C14.7917 6.69004 14.7917 6.71334 14.7917 6.73641C14.7921 7.05373 14.7923 7.3275 14.7278 7.56846C14.5544 8.2155 14.049 8.72091 13.402 8.89428C13.161 8.95885 12.8872 8.95856 12.5699 8.95822C12.5468 8.9582 12.5235 8.95817 12.5 8.95817H7.5C7.47647 8.95817 7.45317 8.9582 7.4301 8.95822C7.11277 8.95856 6.839 8.95885 6.59805 8.89428C5.951 8.72091 5.4456 8.2155 5.27222 7.56846C5.20766 7.3275 5.20795 7.05373 5.20828 6.73641C5.20831 6.71334 5.20833 6.69004 5.20833 6.6665C5.20833 6.64297 5.20831 6.61967 5.20828 6.5966C5.20795 6.27928 5.20766 6.00551 5.27222 5.76455C5.4456 5.1175 5.951 4.6121 6.59805 4.43873C6.839 4.37416 7.11277 4.37445 7.4301 4.37479ZM7.5 5.62484C7.07227 5.62484 6.98102 5.63021 6.92157 5.64613C6.70589 5.70393 6.53742 5.87239 6.47963 6.08808C6.4637 6.14752 6.45833 6.23878 6.45833 6.6665C6.45833 7.09423 6.4637 7.18549 6.47963 7.24493C6.53742 7.46062 6.70589 7.62908 6.92157 7.68687C6.98102 7.7028 7.07227 7.70817 7.5 7.70817H12.5C12.9277 7.70817 13.019 7.7028 13.0784 7.68687C13.2941 7.62908 13.4626 7.46062 13.5204 7.24493C13.5363 7.18549 13.5417 7.09423 13.5417 6.6665C13.5417 6.23878 13.5363 6.14752 13.5204 6.08808C13.4626 5.87239 13.2941 5.70393 13.0784 5.64613C13.019 5.63021 12.9277 5.62484 12.5 5.62484H7.5Z" fill="#344054"/>
<path d="M7.5 10.8332C7.5 11.2934 7.1269 11.6665 6.66667 11.6665C6.20643 11.6665 5.83333 11.2934 5.83333 10.8332C5.83333 10.3729 6.20643 9.99984 6.66667 9.99984C7.1269 9.99984 7.5 10.3729 7.5 10.8332Z" fill="#344054"/>
<path d="M7.5 14.1665C7.5 14.6267 7.1269 14.9998 6.66667 14.9998C6.20643 14.9998 5.83333 14.6267 5.83333 14.1665C5.83333 13.7063 6.20643 13.3332 6.66667 13.3332C7.1269 13.3332 7.5 13.7063 7.5 14.1665Z" fill="#344054"/>
<path d="M10.8333 10.8332C10.8333 11.2934 10.4602 11.6665 10 11.6665C9.53976 11.6665 9.16667 11.2934 9.16667 10.8332C9.16667 10.3729 9.53976 9.99984 10 9.99984C10.4602 9.99984 10.8333 10.3729 10.8333 10.8332Z" fill="#344054"/>
<path d="M10.8333 14.1665C10.8333 14.6267 10.4602 14.9998 10 14.9998C9.53976 14.9998 9.16667 14.6267 9.16667 14.1665C9.16667 13.7063 9.53976 13.3332 10 13.3332C10.4602 13.3332 10.8333 13.7063 10.8333 14.1665Z" fill="#344054"/>
<path d="M14.1667 10.8332C14.1667 11.2934 13.7936 11.6665 13.3333 11.6665C12.8731 11.6665 12.5 11.2934 12.5 10.8332C12.5 10.3729 12.8731 9.99984 13.3333 9.99984C13.7936 9.99984 14.1667 10.3729 14.1667 10.8332Z" fill="#344054"/>
<path d="M14.1667 14.1665C14.1667 14.6267 13.7936 14.9998 13.3333 14.9998C12.8731 14.9998 12.5 14.6267 12.5 14.1665C12.5 13.7063 12.8731 13.3332 13.3333 13.3332C13.7936 13.3332 14.1667 13.7063 14.1667 14.1665Z" fill="#344054"/>
</svg>
