<svg width="20" height="20" viewBox="0 0 20 20" fill="none" xmlns="http://www.w3.org/2000/svg">
<path d="M9.28829 5.85209C9.60495 5.28403 9.76328 5 10 5C10.2367 5 10.395 5.28403 10.7117 5.85209L10.7936 5.99906C10.8836 6.16048 10.9286 6.2412 10.9988 6.29445C11.0689 6.34771 11.1563 6.36748 11.331 6.40701L11.4901 6.44301C12.105 6.58214 12.4125 6.6517 12.4856 6.88693C12.5588 7.12216 12.3492 7.36727 11.93 7.85748L11.8215 7.98431C11.7024 8.12361 11.6428 8.19326 11.616 8.27943C11.5892 8.3656 11.5982 8.45853 11.6163 8.64439L11.6327 8.8136C11.696 9.46765 11.7277 9.79468 11.5362 9.94005C11.3447 10.0854 11.0568 9.95289 10.4811 9.68779L10.3321 9.61921C10.1685 9.54388 10.0867 9.50621 10 9.50621C9.91329 9.50621 9.83148 9.54388 9.66787 9.61921L9.51892 9.68779C8.94317 9.95289 8.65529 10.0854 8.46379 9.94005C8.27228 9.79468 8.30397 9.46765 8.36735 8.8136L8.38375 8.64439C8.40176 8.45853 8.41076 8.3656 8.38397 8.27943C8.35717 8.19326 8.29761 8.12361 8.17848 7.98431L8.07002 7.85748C7.65081 7.36727 7.44121 7.12216 7.51436 6.88693C7.5875 6.6517 7.89496 6.58214 8.50988 6.44301L8.66897 6.40701C8.84371 6.36748 8.93108 6.34771 9.00124 6.29445C9.07139 6.2412 9.11638 6.16048 9.20637 5.99906L9.28829 5.85209Z" stroke="#344054" stroke-width="1.25"/>
<path d="M15.8327 7.49984C15.8327 10.7215 13.221 13.3332 9.99935 13.3332C6.77769 13.3332 4.16602 10.7215 4.16602 7.49984C4.16602 4.27818 6.77769 1.6665 9.99935 1.6665C13.221 1.6665 15.8327 4.27818 15.8327 7.49984Z" stroke="#344054" stroke-width="1.25"/>
<path d="M6.12593 12.5L5.5952 14.4358C5.07158 16.3457 4.80977 17.3006 5.15914 17.8234C5.28158 18.0066 5.44583 18.1537 5.63643 18.2507C6.18029 18.5276 7.02001 18.0901 8.69944 17.215C9.25824 16.9238 9.53764 16.7782 9.83452 16.7466C9.94457 16.7349 10.0554 16.7349 10.1655 16.7466C10.4624 16.7782 10.7418 16.9238 11.3006 17.215C12.98 18.0901 13.8197 18.5276 14.3636 18.2507C14.5542 18.1537 14.7184 18.0066 14.8409 17.8234C15.1902 17.3006 14.9284 16.3457 14.4048 14.4358L13.8741 12.5" stroke="#344054" stroke-width="1.25" stroke-linecap="round"/>
</svg>
